<?xml version="1.0" encoding="UTF-8"?>
<!--Generator: Apple Native CoreSVG 123-->
<!DOCTYPE svg
PUBLIC "-//W3C//DTD SVG 1.1//EN"
       "http://www.w3.org/Graphics/SVG/1.1/DTD/svg11.dtd">
<svg version="1.1" xmlns="http://www.w3.org/2000/svg" xmlns:xlink="http://www.w3.org/1999/xlink" width="3300" height="2200">
 <!--glyph: "uni1001AD.medium", point size: 100.000000, font version: "Version 15.0d7e11", template writer version: "5"-->
 <g id="Notes">
  <rect height="2200" id="artboard" style="fill:white;opacity:1" width="3300" x="0" y="0"/>
  <line id="" style="fill:none;stroke:black;opacity:1;stroke-width:0.5;" x1="263" x2="3036" y1="292" y2="292"/>
  <text style="stroke:none;fill:black;font-family:-apple-system,&quot;SF Pro Display&quot;,&quot;SF Pro Text&quot;,Helvetica,sans-serif;font-weight:bold;" transform="matrix(1 0 0 1 263 322)">Weight/Scale Variations</text>
  <text style="stroke:none;fill:black;font-family:-apple-system,&quot;SF Pro Display&quot;,&quot;SF Pro Text&quot;,Helvetica,sans-serif;text-anchor:middle;" transform="matrix(1 0 0 1 559.711 322)">Ultralight</text>
  <text style="stroke:none;fill:black;font-family:-apple-system,&quot;SF Pro Display&quot;,&quot;SF Pro Text&quot;,Helvetica,sans-serif;text-anchor:middle;" transform="matrix(1 0 0 1 856.422 322)">Thin</text>
  <text style="stroke:none;fill:black;font-family:-apple-system,&quot;SF Pro Display&quot;,&quot;SF Pro Text&quot;,Helvetica,sans-serif;text-anchor:middle;" transform="matrix(1 0 0 1 1153.13 322)">Light</text>
  <text style="stroke:none;fill:black;font-family:-apple-system,&quot;SF Pro Display&quot;,&quot;SF Pro Text&quot;,Helvetica,sans-serif;text-anchor:middle;" transform="matrix(1 0 0 1 1449.84 322)">Regular</text>
  <text style="stroke:none;fill:black;font-family:-apple-system,&quot;SF Pro Display&quot;,&quot;SF Pro Text&quot;,Helvetica,sans-serif;text-anchor:middle;" transform="matrix(1 0 0 1 1746.56 322)">Medium</text>
  <text style="stroke:none;fill:black;font-family:-apple-system,&quot;SF Pro Display&quot;,&quot;SF Pro Text&quot;,Helvetica,sans-serif;text-anchor:middle;" transform="matrix(1 0 0 1 2043.27 322)">Semibold</text>
  <text style="stroke:none;fill:black;font-family:-apple-system,&quot;SF Pro Display&quot;,&quot;SF Pro Text&quot;,Helvetica,sans-serif;text-anchor:middle;" transform="matrix(1 0 0 1 2339.98 322)">Bold</text>
  <text style="stroke:none;fill:black;font-family:-apple-system,&quot;SF Pro Display&quot;,&quot;SF Pro Text&quot;,Helvetica,sans-serif;text-anchor:middle;" transform="matrix(1 0 0 1 2636.69 322)">Heavy</text>
  <text style="stroke:none;fill:black;font-family:-apple-system,&quot;SF Pro Display&quot;,&quot;SF Pro Text&quot;,Helvetica,sans-serif;text-anchor:middle;" transform="matrix(1 0 0 1 2933.4 322)">Black</text>
  <line id="" style="fill:none;stroke:black;opacity:1;stroke-width:0.5;" x1="263" x2="3036" y1="1903" y2="1903"/>
  <g id="" transform="matrix(1 0 0 1 263 1933)">
   <path d="M 9.24805 0.830078 C 13.5547 0.830078 17.1387 -2.74414 17.1387 -7.05078 C 17.1387 -11.3574 13.5449 -14.9316 9.23828 -14.9316 C 4.94141 -14.9316 1.36719 -11.3574 1.36719 -7.05078 C 1.36719 -2.74414 4.95117 0.830078 9.24805 0.830078 Z M 9.24805 -0.654297 C 5.70312 -0.654297 2.87109 -3.49609 2.87109 -7.05078 C 2.87109 -10.6055 5.69336 -13.4473 9.23828 -13.4473 C 12.793 -13.4473 15.6348 -10.6055 15.6445 -7.05078 C 15.6543 -3.49609 12.8027 -0.654297 9.24805 -0.654297 Z M 9.22852 -3.42773 C 9.69727 -3.42773 9.9707 -3.74023 9.9707 -4.25781 L 9.9707 -6.31836 L 12.1973 -6.31836 C 12.6953 -6.31836 13.0371 -6.57227 13.0371 -7.04102 C 13.0371 -7.51953 12.7148 -7.7832 12.1973 -7.7832 L 9.9707 -7.7832 L 9.9707 -10.0098 C 9.9707 -10.5273 9.69727 -10.8496 9.22852 -10.8496 C 8.75977 -10.8496 8.50586 -10.5078 8.50586 -10.0098 L 8.50586 -7.7832 L 6.29883 -7.7832 C 5.78125 -7.7832 5.44922 -7.51953 5.44922 -7.04102 C 5.44922 -6.57227 5.80078 -6.31836 6.29883 -6.31836 L 8.50586 -6.31836 L 8.50586 -4.25781 C 8.50586 -3.75977 8.75977 -3.42773 9.22852 -3.42773 Z"/>
  </g>
  <g id="" transform="matrix(1 0 0 1 281.506 1933)">
   <path d="M 11.709 2.91016 C 17.1582 2.91016 21.6699 -1.60156 21.6699 -7.05078 C 21.6699 -12.4902 17.1484 -17.0117 11.6992 -17.0117 C 6.25977 -17.0117 1.74805 -12.4902 1.74805 -7.05078 C 1.74805 -1.60156 6.26953 2.91016 11.709 2.91016 Z M 11.709 1.25 C 7.09961 1.25 3.41797 -2.44141 3.41797 -7.05078 C 3.41797 -11.6504 7.08984 -15.3516 11.6992 -15.3516 C 16.3086 -15.3516 20 -11.6504 20.0098 -7.05078 C 20.0195 -2.44141 16.3184 1.25 11.709 1.25 Z M 11.6895 -2.41211 C 12.207 -2.41211 12.5195 -2.77344 12.5195 -3.33984 L 12.5195 -6.23047 L 15.5762 -6.23047 C 16.123 -6.23047 16.5039 -6.51367 16.5039 -7.03125 C 16.5039 -7.55859 16.1426 -7.86133 15.5762 -7.86133 L 12.5195 -7.86133 L 12.5195 -10.9277 C 12.5195 -11.5039 12.207 -11.8555 11.6895 -11.8555 C 11.1719 -11.8555 10.8789 -11.4844 10.8789 -10.9277 L 10.8789 -7.86133 L 7.83203 -7.86133 C 7.26562 -7.86133 6.89453 -7.55859 6.89453 -7.03125 C 6.89453 -6.51367 7.28516 -6.23047 7.83203 -6.23047 L 10.8789 -6.23047 L 10.8789 -3.33984 C 10.8789 -2.79297 11.1719 -2.41211 11.6895 -2.41211 Z"/>
  </g>
  <g id="" transform="matrix(1 0 0 1 304.924 1933)">
   <path d="M 14.9707 5.67383 C 21.9336 5.67383 27.6953 -0.078125 27.6953 -7.04102 C 27.6953 -14.0039 21.9238 -19.7559 14.9609 -19.7559 C 8.00781 -19.7559 2.25586 -14.0039 2.25586 -7.04102 C 2.25586 -0.078125 8.01758 5.67383 14.9707 5.67383 Z M 14.9707 3.85742 C 8.93555 3.85742 4.08203 -1.00586 4.08203 -7.04102 C 4.08203 -13.0762 8.92578 -17.9395 14.9609 -17.9395 C 21.0059 -17.9395 25.8594 -13.0762 25.8691 -7.04102 C 25.8789 -1.00586 21.0156 3.85742 14.9707 3.85742 Z M 14.9512 -1.06445 C 15.5176 -1.06445 15.8691 -1.45508 15.8691 -2.06055 L 15.8691 -6.13281 L 20.1074 -6.13281 C 20.6934 -6.13281 21.1133 -6.46484 21.1133 -7.02148 C 21.1133 -7.59766 20.7227 -7.93945 20.1074 -7.93945 L 15.8691 -7.93945 L 15.8691 -12.1875 C 15.8691 -12.8027 15.5176 -13.1934 14.9512 -13.1934 C 14.3848 -13.1934 14.0625 -12.7832 14.0625 -12.1875 L 14.0625 -7.93945 L 9.83398 -7.93945 C 9.21875 -7.93945 8.80859 -7.59766 8.80859 -7.02148 C 8.80859 -6.46484 9.23828 -6.13281 9.83398 -6.13281 L 14.0625 -6.13281 L 14.0625 -2.06055 C 14.0625 -1.47461 14.3848 -1.06445 14.9512 -1.06445 Z"/>
  </g>
  <text style="stroke:none;fill:black;font-family:-apple-system,&quot;SF Pro Display&quot;,&quot;SF Pro Text&quot;,Helvetica,sans-serif;font-weight:bold;" transform="matrix(1 0 0 1 263 1953)">Design Variations</text>
  <text style="stroke:none;fill:black;font-family:-apple-system,&quot;SF Pro Display&quot;,&quot;SF Pro Text&quot;,Helvetica,sans-serif;" transform="matrix(1 0 0 1 263 1971)">Symbols are supported in up to nine weights and three scales.</text>
  <text style="stroke:none;fill:black;font-family:-apple-system,&quot;SF Pro Display&quot;,&quot;SF Pro Text&quot;,Helvetica,sans-serif;" transform="matrix(1 0 0 1 263 1989)">For optimal layout with text and other symbols, vertically align</text>
  <text style="stroke:none;fill:black;font-family:-apple-system,&quot;SF Pro Display&quot;,&quot;SF Pro Text&quot;,Helvetica,sans-serif;" transform="matrix(1 0 0 1 263 2007)">symbols with the adjacent text.</text>
  <rect height="14" id="" style="fill:#00AEEF;stroke:none;opacity:0.4;" width="3" x="776" y="1919"/>
  <g id="" transform="matrix(1 0 0 1 779 1933)">
   <path d="M 10.5273 0 L 12.373 0 L 7.17773 -14.0918 L 5.43945 -14.0918 L 0.244141 0 L 2.08984 0 L 3.50586 -4.0332 L 9.11133 -4.0332 Z M 6.2793 -11.9531 L 6.33789 -11.9531 L 8.59375 -5.52734 L 4.02344 -5.52734 Z"/>
  </g>
  <rect height="14" id="" style="fill:#00AEEF;stroke:none;opacity:0.4;" width="3" x="791.617" y="1919"/>
  <text style="stroke:none;fill:black;font-family:-apple-system,&quot;SF Pro Display&quot;,&quot;SF Pro Text&quot;,Helvetica,sans-serif;font-weight:bold;" transform="matrix(1 0 0 1 776 1953)">Margins</text>
  <text style="stroke:none;fill:black;font-family:-apple-system,&quot;SF Pro Display&quot;,&quot;SF Pro Text&quot;,Helvetica,sans-serif;" transform="matrix(1 0 0 1 776 1971)">Leading and trailing margins on the left and right side of each symbol</text>
  <text style="stroke:none;fill:black;font-family:-apple-system,&quot;SF Pro Display&quot;,&quot;SF Pro Text&quot;,Helvetica,sans-serif;" transform="matrix(1 0 0 1 776 1989)">can be adjusted by modifying the width of the blue rectangles.</text>
  <text style="stroke:none;fill:black;font-family:-apple-system,&quot;SF Pro Display&quot;,&quot;SF Pro Text&quot;,Helvetica,sans-serif;" transform="matrix(1 0 0 1 776 2007)">Modifications are automatically applied proportionally to all</text>
  <text style="stroke:none;fill:black;font-family:-apple-system,&quot;SF Pro Display&quot;,&quot;SF Pro Text&quot;,Helvetica,sans-serif;" transform="matrix(1 0 0 1 776 2025)">scales and weights.</text>
  <g id="" transform="matrix(1 0 0 1 1289 1933)">
   <path d="M 2.83203 3.11523 L 4.375 4.6582 C 5.22461 5.48828 6.19141 5.41992 7.06055 4.46289 L 17.2754 -6.66016 C 17.7051 -6.36719 18.0957 -6.37695 18.5645 -6.47461 L 19.6094 -6.68945 L 20.3027 -5.99609 L 20.2539 -5.47852 C 20.1855 -4.95117 20.3516 -4.53125 20.8496 -4.0332 L 21.6602 -3.22266 C 22.168 -2.71484 22.8223 -2.68555 23.3008 -3.16406 L 26.5527 -6.41602 C 27.0312 -6.89453 27.0117 -7.54883 26.5039 -8.05664 L 25.6836 -8.87695 C 25.1855 -9.375 24.7754 -9.55078 24.2383 -9.47266 L 23.7109 -9.41406 L 23.0566 -10.0781 L 23.3398 -11.2207 C 23.4863 -11.7871 23.3398 -12.2559 22.7148 -12.8613 L 20.3027 -15.2539 C 16.7578 -18.7793 12.2266 -18.6719 9.11133 -15.5371 C 8.69141 -15.1074 8.64258 -14.5215 8.91602 -14.0918 C 9.15039 -13.7207 9.62891 -13.4961 10.2734 -13.6621 C 11.7871 -14.043 13.3008 -13.9258 14.7852 -12.9199 L 14.1602 -11.3379 C 13.9258 -10.752 13.9453 -10.2734 14.1797 -9.83398 L 3.01758 0.439453 C 2.08008 1.30859 1.97266 2.25586 2.83203 3.11523 Z M 10.6738 -15.1465 C 13.3398 -17.1387 16.6504 -16.8262 19.0527 -14.4141 L 21.6797 -11.8066 C 21.9141 -11.5723 21.9434 -11.3867 21.8848 -11.0938 L 21.5039 -9.53125 L 23.0762 -7.95898 L 24.043 -8.04688 C 24.3262 -8.07617 24.4141 -8.05664 24.6387 -7.83203 L 25.2637 -7.20703 L 22.5098 -4.46289 L 21.8848 -5.07812 C 21.6602 -5.30273 21.6406 -5.40039 21.6699 -5.68359 L 21.7578 -6.64062 L 20.1953 -8.20312 L 18.5742 -7.89062 C 18.291 -7.83203 18.1445 -7.83203 17.9102 -8.07617 L 15.7324 -10.2539 C 15.5078 -10.4883 15.4785 -10.625 15.6055 -10.9473 L 16.5527 -13.2227 C 14.9512 -14.7559 12.8418 -15.6055 10.8008 -14.9512 C 10.7129 -14.9219 10.6445 -14.9414 10.6152 -14.9805 C 10.5859 -15.0293 10.5859 -15.0781 10.6738 -15.1465 Z M 4.10156 2.41211 C 3.61328 1.91406 3.78906 1.61133 4.12109 1.30859 L 15.0781 -8.80859 L 16.3086 -7.57812 L 6.15234 3.34961 C 5.84961 3.68164 5.46875 3.7793 5.06836 3.37891 Z"/>
  </g>
  <text style="stroke:none;fill:black;font-family:-apple-system,&quot;SF Pro Display&quot;,&quot;SF Pro Text&quot;,Helvetica,sans-serif;font-weight:bold;" transform="matrix(1 0 0 1 1289 1953)">Exporting</text>
  <text style="stroke:none;fill:black;font-family:-apple-system,&quot;SF Pro Display&quot;,&quot;SF Pro Text&quot;,Helvetica,sans-serif;" transform="matrix(1 0 0 1 1289 1971)">Symbols should be outlined when exporting to ensure the</text>
  <text style="stroke:none;fill:black;font-family:-apple-system,&quot;SF Pro Display&quot;,&quot;SF Pro Text&quot;,Helvetica,sans-serif;" transform="matrix(1 0 0 1 1289 1989)">design is preserved when submitting to Xcode.</text>
  <text id="template-version" style="stroke:none;fill:black;font-family:-apple-system,&quot;SF Pro Display&quot;,&quot;SF Pro Text&quot;,Helvetica,sans-serif;text-anchor:end;" transform="matrix(1 0 0 1 3036 1933)">Template v.1.0</text>
  <text style="stroke:none;fill:black;font-family:-apple-system,&quot;SF Pro Display&quot;,&quot;SF Pro Text&quot;,Helvetica,sans-serif;text-anchor:end;" transform="matrix(1 0 0 1 3036 1951)">Generated from sun.max</text>
  <text style="stroke:none;fill:black;font-family:-apple-system,&quot;SF Pro Display&quot;,&quot;SF Pro Text&quot;,Helvetica,sans-serif;text-anchor:end;" transform="matrix(1 0 0 1 3036 1969)">Typeset at 100 points</text>
  <text style="stroke:none;fill:black;font-family:-apple-system,&quot;SF Pro Display&quot;,&quot;SF Pro Text&quot;,Helvetica,sans-serif;" transform="matrix(1 0 0 1 263 726)">Small</text>
  <text style="stroke:none;fill:black;font-family:-apple-system,&quot;SF Pro Display&quot;,&quot;SF Pro Text&quot;,Helvetica,sans-serif;" transform="matrix(1 0 0 1 263 1156)">Medium</text>
  <text style="stroke:none;fill:black;font-family:-apple-system,&quot;SF Pro Display&quot;,&quot;SF Pro Text&quot;,Helvetica,sans-serif;" transform="matrix(1 0 0 1 263 1586)">Large</text>
 </g>
 <g id="Guides">
  <g id="H-reference" style="fill:#27AAE1;stroke:none;" transform="matrix(1 0 0 1 339 696)">
   <path d="M 54.9316 0 L 57.666 0 L 30.5664 -70.459 L 28.0762 -70.459 L 0.976562 0 L 3.66211 0 L 12.9395 -24.4629 L 45.7031 -24.4629 Z M 29.1992 -67.0898 L 29.4434 -67.0898 L 44.8242 -26.709 L 13.8184 -26.709 Z"/>
  </g>
  <line id="Baseline-S" style="fill:none;stroke:#27AAE1;opacity:1;stroke-width:0.577;" x1="263" x2="3036" y1="696" y2="696"/>
  <line id="Capline-S" style="fill:none;stroke:#27AAE1;opacity:1;stroke-width:0.577;" x1="263" x2="3036" y1="625.541" y2="625.541"/>
  <g id="H-reference" style="fill:#27AAE1;stroke:none;" transform="matrix(1 0 0 1 339 1126)">
   <path d="M 54.9316 0 L 57.666 0 L 30.5664 -70.459 L 28.0762 -70.459 L 0.976562 0 L 3.66211 0 L 12.9395 -24.4629 L 45.7031 -24.4629 Z M 29.1992 -67.0898 L 29.4434 -67.0898 L 44.8242 -26.709 L 13.8184 -26.709 Z"/>
  </g>
  <line id="Baseline-M" style="fill:none;stroke:#27AAE1;opacity:1;stroke-width:0.577;" x1="263" x2="3036" y1="1126" y2="1126"/>
  <line id="Capline-M" style="fill:none;stroke:#27AAE1;opacity:1;stroke-width:0.577;" x1="263" x2="3036" y1="1055.54" y2="1055.54"/>
  <g id="H-reference" style="fill:#27AAE1;stroke:none;" transform="matrix(1 0 0 1 339 1556)">
   <path d="M 54.9316 0 L 57.666 0 L 30.5664 -70.459 L 28.0762 -70.459 L 0.976562 0 L 3.66211 0 L 12.9395 -24.4629 L 45.7031 -24.4629 Z M 29.1992 -67.0898 L 29.4434 -67.0898 L 44.8242 -26.709 L 13.8184 -26.709 Z"/>
  </g>
  <line id="Baseline-L" style="fill:none;stroke:#27AAE1;opacity:1;stroke-width:0.577;" x1="263" x2="3036" y1="1556" y2="1556"/>
  <line id="Capline-L" style="fill:none;stroke:#27AAE1;opacity:1;stroke-width:0.577;" x1="263" x2="3036" y1="1485.54" y2="1485.54"/>
  <rect height="119.336" id="left-margin" style="fill:#00AEEF;stroke:none;opacity:0.4;" width="8.74023" x="1388.25" y="1030.79"/>
  <rect height="119.336" id="right-margin" style="fill:#00AEEF;stroke:none;opacity:0.4;" width="8.74023" x="1502.7" y="1030.79"/>
 </g>
 <g id="Symbols">
  <g id="Black-L" transform="matrix(1 0 0 1 2845.44 1556)">
   <path d="M 97.2656 -102.734 C 97.2656 -107.812 93.0176 -112.109 87.9395 -112.109 C 82.8613 -112.109 78.6133 -107.812 78.6133 -102.734 L 78.6133 -91.3574 C 78.6133 -86.2793 82.8613 -82.0312 87.9395 -82.0312 C 93.0176 -82.0312 97.2656 -86.2793 97.2656 -91.3574 Z M 120.752 -81.2988 C 117.285 -77.832 117.334 -71.7285 120.947 -68.1152 C 124.414 -64.5996 130.518 -64.6484 134.082 -68.2617 L 142.139 -76.3672 C 145.605 -79.8828 145.557 -85.9863 141.943 -89.5996 C 138.477 -93.0664 132.373 -92.9688 128.809 -89.4043 Z M 41.748 -68.2617 C 45.3125 -64.6973 51.416 -64.5996 54.9316 -68.1152 C 58.4961 -71.6797 58.5938 -77.832 55.127 -81.2988 L 47.0703 -89.4043 C 43.5547 -92.9199 37.4023 -93.0664 33.9355 -89.5996 C 30.3223 -85.9863 30.2734 -79.8828 33.7402 -76.416 Z M 87.9395 -72.1191 C 67.8711 -72.1191 51.3672 -55.6152 51.3672 -35.498 C 51.3672 -15.4297 67.8711 1.12305 87.9395 1.12305 C 108.008 1.12305 124.512 -15.4297 124.512 -35.498 C 124.512 -55.6152 108.008 -72.1191 87.9395 -72.1191 Z M 87.9395 -53.0762 C 97.4609 -53.0762 105.469 -45.0684 105.469 -35.498 C 105.469 -25.9766 97.4609 -17.9688 87.9395 -17.9688 C 78.418 -17.9688 70.4102 -25.9766 70.4102 -35.498 C 70.4102 -45.0684 78.418 -53.0762 87.9395 -53.0762 Z M 155.273 -26.1719 C 160.352 -26.1719 164.648 -30.4688 164.648 -35.498 C 164.648 -40.5762 160.352 -44.8242 155.273 -44.8242 L 143.896 -44.8242 C 138.867 -44.8242 134.619 -40.5762 134.619 -35.498 C 134.619 -30.4688 138.867 -26.1719 143.896 -26.1719 Z M 20.6055 -44.8242 C 15.5273 -44.8242 11.2793 -40.5762 11.2793 -35.498 C 11.2793 -30.4688 15.5273 -26.1719 20.6055 -26.1719 L 31.9824 -26.1719 C 37.0117 -26.1719 41.3574 -30.4688 41.3574 -35.498 C 41.3574 -40.5762 37.0117 -44.8242 31.9824 -44.8242 Z M 133.984 -2.83203 C 130.469 -6.29883 124.365 -6.25 120.752 -2.63672 C 117.285 0.830078 117.334 6.88477 120.947 10.498 L 129.053 18.5547 C 132.568 22.0215 138.672 21.9238 142.236 18.3594 C 145.752 14.8438 145.703 8.74023 142.09 5.22461 Z M 33.7891 5.17578 C 30.1758 8.74023 30.127 14.8438 33.5938 18.3105 C 37.207 21.9238 43.3105 22.0215 46.8262 18.5059 L 54.9316 10.498 C 58.4961 6.88477 58.5938 0.830078 55.127 -2.63672 C 51.5137 -6.25 45.3613 -6.29883 41.8945 -2.83203 Z M 97.2656 20.3125 C 97.2656 15.2832 93.0176 11.0352 87.9395 11.0352 C 82.8613 11.0352 78.6133 15.2832 78.6133 20.3125 L 78.6133 31.7383 C 78.6133 36.7676 82.8613 41.1133 87.9395 41.1133 C 93.0176 41.1133 97.2656 36.7676 97.2656 31.7383 Z"/>
  </g>
  <g id="Heavy-L" transform="matrix(1 0 0 1 2550.8 1556)">
   <path d="M 94.0918 -101.807 C 94.0918 -106.299 90.332 -110.107 85.8887 -110.107 C 81.3965 -110.107 77.6367 -106.299 77.6367 -101.807 L 77.6367 -89.8926 C 77.6367 -85.4492 81.3965 -81.6895 85.8887 -81.6895 C 90.332 -81.6895 94.0918 -85.4492 94.0918 -89.8926 Z M 118.457 -79.541 C 115.332 -76.4648 115.381 -71.0938 118.555 -67.9199 C 121.68 -64.7949 127.051 -64.8438 130.225 -68.0176 L 138.623 -76.5137 C 141.699 -79.5898 141.65 -85.0098 138.477 -88.1836 C 135.4 -91.2598 130.029 -91.1621 126.904 -88.0371 Z M 41.5039 -68.0176 C 44.6289 -64.8438 50.0488 -64.7949 53.125 -67.9199 C 56.2988 -71.0449 56.3477 -76.5137 53.2715 -79.541 L 44.873 -88.0371 C 41.7969 -91.1621 36.377 -91.2598 33.252 -88.1836 C 30.0781 -85.0098 30.0293 -79.5898 33.1055 -76.5137 Z M 85.8398 -70.8984 C 66.4551 -70.8984 50.4883 -54.9316 50.4883 -35.498 C 50.4883 -16.1133 66.4551 -0.0976562 85.8398 -0.0976562 C 105.225 -0.0976562 121.24 -16.1133 121.24 -35.498 C 121.24 -54.9316 105.225 -70.8984 85.8398 -70.8984 Z M 85.8398 -54.3945 C 96.1426 -54.3945 104.736 -45.8008 104.736 -35.498 C 104.736 -25.2441 96.1426 -16.6504 85.8398 -16.6504 C 75.5859 -16.6504 66.9922 -25.2441 66.9922 -35.498 C 66.9922 -45.8008 75.5859 -54.3945 85.8398 -54.3945 Z M 152.246 -27.2949 C 156.689 -27.2949 160.498 -31.0547 160.498 -35.498 C 160.498 -39.9902 156.689 -43.75 152.246 -43.75 L 140.332 -43.75 C 135.889 -43.75 132.129 -39.9902 132.129 -35.498 C 132.129 -31.0547 135.889 -27.2949 140.332 -27.2949 Z M 19.5312 -43.75 C 15.0391 -43.75 11.2793 -39.9902 11.2793 -35.498 C 11.2793 -31.0547 15.0391 -27.2949 19.5312 -27.2949 L 31.3965 -27.2949 C 35.8398 -27.2949 39.6484 -31.0547 39.6484 -35.498 C 39.6484 -39.9902 35.8398 -43.75 31.3965 -43.75 Z M 130.078 -3.02734 C 127.002 -6.15234 121.631 -6.10352 118.457 -2.92969 C 115.332 0.195312 115.381 5.51758 118.555 8.69141 L 127.051 17.1387 C 130.176 20.2148 135.547 20.166 138.721 16.9922 C 141.797 13.8672 141.748 8.49609 138.574 5.37109 Z M 33.1543 5.32227 C 29.9805 8.49609 29.9316 13.8672 33.0078 16.9434 C 36.1816 20.1172 41.5527 20.2148 44.6777 17.0898 L 53.125 8.69141 C 56.2988 5.51758 56.3477 0.195312 53.2715 -2.88086 C 50.0977 -6.10352 44.6777 -6.10352 41.6016 -3.02734 Z M 94.0918 18.8965 C 94.0918 14.4043 90.332 10.6445 85.8887 10.6445 C 81.3965 10.6445 77.6367 14.4043 77.6367 18.8965 L 77.6367 30.8105 C 77.6367 35.2539 81.3965 39.0625 85.8887 39.0625 C 90.332 39.0625 94.0918 35.2539 94.0918 30.8105 Z"/>
  </g>
  <g id="Bold-L" transform="matrix(1 0 0 1 2256.41 1556)">
   <path d="M 90.5762 -100.781 C 90.5762 -104.59 87.3535 -107.812 83.5449 -107.812 C 79.7363 -107.812 76.5137 -104.59 76.5137 -100.781 L 76.5137 -88.2812 C 76.5137 -84.4727 79.7363 -81.2988 83.5449 -81.2988 C 87.3535 -81.2988 90.5762 -84.4727 90.5762 -88.2812 Z M 115.82 -77.5879 C 113.184 -74.9512 113.232 -70.4102 115.918 -67.6758 C 118.555 -65.0391 123.145 -65.0391 125.83 -67.7734 L 134.668 -76.6602 C 137.354 -79.2969 137.305 -83.8867 134.619 -86.5723 C 131.934 -89.2578 127.393 -89.1602 124.707 -86.4746 Z M 41.2598 -67.7734 C 43.8965 -65.0391 48.4863 -65.0391 51.123 -67.6758 C 53.8086 -70.3613 53.8574 -75 51.2695 -77.5879 L 42.4316 -86.4746 C 39.7949 -89.1602 35.2051 -89.2578 32.5195 -86.5723 C 29.834 -83.8867 29.7852 -79.2969 32.4219 -76.6602 Z M 83.4961 -69.5312 C 64.8926 -69.5312 49.5117 -54.1504 49.5117 -35.498 C 49.5117 -16.8457 64.8926 -1.46484 83.4961 -1.46484 C 102.148 -1.46484 117.529 -16.8457 117.529 -35.498 C 117.529 -54.1504 102.148 -69.5312 83.4961 -69.5312 Z M 83.4961 -55.9082 C 94.6289 -55.9082 103.906 -46.6309 103.906 -35.498 C 103.906 -24.4141 94.6289 -15.1367 83.4961 -15.1367 C 72.4121 -15.1367 63.1348 -24.4141 63.1348 -35.498 C 63.1348 -46.6309 72.4121 -55.9082 83.4961 -55.9082 Z M 148.828 -28.5156 C 152.588 -28.5156 155.859 -31.6895 155.859 -35.498 C 155.859 -39.3066 152.588 -42.5293 148.828 -42.5293 L 136.377 -42.5293 C 132.568 -42.5293 129.346 -39.3066 129.346 -35.498 C 129.346 -31.6895 132.568 -28.5156 136.377 -28.5156 Z M 18.3105 -42.5293 C 14.502 -42.5293 11.2793 -39.3066 11.2793 -35.498 C 11.2793 -31.6895 14.502 -28.5156 18.3105 -28.5156 L 30.7617 -28.5156 C 34.5703 -28.5156 37.793 -31.6895 37.793 -35.498 C 37.793 -39.3066 34.5703 -42.5293 30.7617 -42.5293 Z M 125.732 -3.27148 C 123.096 -5.9082 118.555 -5.9082 115.82 -3.17383 C 113.184 -0.537109 113.232 4.00391 115.918 6.68945 L 124.854 15.5762 C 127.49 18.2129 132.031 18.1641 134.766 15.4297 C 137.402 12.793 137.354 8.25195 134.668 5.56641 Z M 32.4219 5.51758 C 29.7363 8.20312 29.6875 12.7441 32.3242 15.4297 C 35.0098 18.1152 39.5996 18.1641 42.2363 15.5273 L 51.123 6.68945 C 53.8086 4.00391 53.8574 -0.537109 51.2695 -3.17383 C 48.5352 -5.85938 43.9453 -5.9082 41.3086 -3.27148 Z M 90.5762 17.2852 C 90.5762 13.4766 87.3535 10.2539 83.5449 10.2539 C 79.7363 10.2539 76.5137 13.4766 76.5137 17.2852 L 76.5137 29.7852 C 76.5137 33.5449 79.7363 36.8164 83.5449 36.8164 C 87.3535 36.8164 90.5762 33.5449 90.5762 29.7852 Z"/>
  </g>
  <g id="Semibold-L" transform="matrix(1 0 0 1 1961.31 1556)">
   <path d="M 88.1348 -100.098 C 88.1348 -103.418 85.3027 -106.25 81.9336 -106.25 C 78.6133 -106.25 75.7812 -103.418 75.7812 -100.098 L 75.7812 -87.1582 C 75.7812 -83.8379 78.6133 -81.0059 81.9336 -81.0059 C 85.3027 -81.0059 88.1348 -83.8379 88.1348 -87.1582 Z M 114.062 -76.2207 C 111.719 -73.877 111.719 -69.9219 114.111 -67.5293 C 116.455 -65.1855 120.41 -65.1855 122.852 -67.5781 L 131.982 -76.7578 C 134.326 -79.1016 134.277 -83.1055 131.934 -85.498 C 129.59 -87.8418 125.586 -87.793 123.242 -85.4492 Z M 41.0645 -67.5781 C 43.4082 -65.1855 47.4121 -65.1855 49.7559 -67.5293 C 52.1484 -69.8242 52.1484 -73.9258 49.8535 -76.2207 L 40.7227 -85.4492 C 38.4277 -87.7441 34.375 -87.8418 32.0312 -85.498 C 29.6387 -83.1543 29.6387 -79.1016 31.9336 -76.7578 Z M 81.9336 -68.6035 C 63.8184 -68.6035 48.8281 -53.6621 48.8281 -35.498 C 48.8281 -17.3828 63.8184 -2.39258 81.9336 -2.39258 C 100 -2.39258 114.99 -17.3828 114.99 -35.498 C 114.99 -53.6621 100 -68.6035 81.9336 -68.6035 Z M 81.9336 -56.9336 C 93.6035 -56.9336 103.32 -47.2168 103.32 -35.498 C 103.32 -23.8281 93.6035 -14.1113 81.9336 -14.1113 C 70.2148 -14.1113 60.498 -23.8281 60.498 -35.498 C 60.498 -47.2168 70.2148 -56.9336 81.9336 -56.9336 Z M 146.436 -29.3457 C 149.805 -29.3457 152.637 -32.1777 152.637 -35.498 C 152.637 -38.8672 149.805 -41.6992 146.436 -41.6992 L 133.594 -41.6992 C 130.273 -41.6992 127.441 -38.8672 127.441 -35.498 C 127.441 -32.1777 130.273 -29.3457 133.594 -29.3457 Z M 17.4805 -41.6992 C 14.1113 -41.6992 11.2793 -38.8672 11.2793 -35.498 C 11.2793 -32.1777 14.1113 -29.3457 17.4805 -29.3457 L 30.3223 -29.3457 C 33.6426 -29.3457 36.5234 -32.1777 36.5234 -35.498 C 36.5234 -38.8672 33.6426 -41.6992 30.3223 -41.6992 Z M 122.754 -3.41797 C 120.41 -5.76172 116.406 -5.76172 114.062 -3.36914 C 111.719 -1.02539 111.719 2.92969 114.111 5.32227 L 123.291 14.502 C 125.635 16.8457 129.639 16.7969 132.031 14.4043 C 134.375 12.0605 134.326 8.05664 131.934 5.71289 Z M 31.9336 5.66406 C 29.541 8.00781 29.541 12.0117 31.8359 14.3555 C 34.1797 16.748 38.2324 16.7969 40.5762 14.4531 L 49.7559 5.32227 C 52.1484 2.97852 52.1484 -1.02539 49.8535 -3.36914 C 47.4609 -5.76172 43.4082 -5.76172 41.0645 -3.41797 Z M 88.1348 16.1621 C 88.1348 12.793 85.3027 9.96094 81.9336 9.96094 C 78.6133 9.96094 75.7812 12.793 75.7812 16.1621 L 75.7812 29.0527 C 75.7812 32.373 78.6133 35.2539 81.9336 35.2539 C 85.3027 35.2539 88.1348 32.373 88.1348 29.0527 Z"/>
  </g>
  <g id="Medium-L" transform="matrix(1 0 0 1 1665.82 1556)">
   <path d="M 86.2793 -99.5117 C 86.2793 -102.539 83.7402 -105.078 80.7617 -105.078 C 77.7344 -105.078 75.1953 -102.539 75.1953 -99.5117 L 75.1953 -86.3281 C 75.1953 -83.3496 77.7344 -80.8105 80.7617 -80.8105 C 83.7402 -80.8105 86.2793 -83.3496 86.2793 -86.3281 Z M 112.695 -75.1953 C 110.596 -73.0957 110.596 -69.5312 112.695 -67.4316 C 114.844 -65.2832 118.408 -65.2832 120.557 -67.4316 L 129.932 -76.8066 C 132.031 -78.9062 132.031 -82.5195 129.883 -84.668 C 127.783 -86.7676 124.219 -86.7676 122.07 -84.6191 Z M 40.918 -67.4316 C 43.0176 -65.2832 46.582 -65.2832 48.6816 -67.4316 C 50.8301 -69.4824 50.8301 -73.1445 48.7793 -75.1953 L 39.4531 -84.6191 C 37.4023 -86.7188 33.7402 -86.7676 31.6406 -84.668 C 29.4922 -82.5684 29.4922 -78.9062 31.5918 -76.8555 Z M 80.7129 -67.9199 C 62.9883 -67.9199 48.3398 -53.2715 48.3398 -35.498 C 48.3398 -17.7734 62.9883 -3.125 80.7129 -3.125 C 98.3887 -3.125 113.037 -17.7734 113.037 -35.498 C 113.037 -53.2715 98.3887 -67.9199 80.7129 -67.9199 Z M 80.7129 -57.7148 C 92.8223 -57.7148 102.881 -47.6562 102.881 -35.498 C 102.881 -23.3887 92.8223 -13.3301 80.7129 -13.3301 C 68.5547 -13.3301 58.4961 -23.3887 58.4961 -35.498 C 58.4961 -47.6562 68.5547 -57.7148 80.7129 -57.7148 Z M 144.678 -29.9805 C 147.656 -29.9805 150.195 -32.5195 150.195 -35.498 C 150.195 -38.5254 147.656 -41.0645 144.678 -41.0645 L 131.494 -41.0645 C 128.516 -41.0645 125.977 -38.5254 125.977 -35.498 C 125.977 -32.5195 128.516 -29.9805 131.494 -29.9805 Z M 16.8457 -41.0645 C 13.8184 -41.0645 11.2793 -38.5254 11.2793 -35.498 C 11.2793 -32.5195 13.8184 -29.9805 16.8457 -29.9805 L 29.9805 -29.9805 C 32.959 -29.9805 35.5469 -32.5195 35.5469 -35.498 C 35.5469 -38.5254 32.959 -41.0645 29.9805 -41.0645 Z M 120.508 -3.56445 C 118.359 -5.66406 114.795 -5.66406 112.695 -3.51562 C 110.596 -1.41602 110.596 2.14844 112.695 4.24805 L 122.119 13.6719 C 124.219 15.7715 127.783 15.7227 129.932 13.5742 C 132.031 11.4746 132.031 7.91016 129.883 5.81055 Z M 31.543 5.76172 C 29.4434 7.86133 29.3945 11.4258 31.4941 13.5742 C 33.5938 15.6738 37.207 15.7227 39.3555 13.623 L 48.6816 4.29688 C 50.8301 2.19727 50.8301 -1.36719 48.7793 -3.51562 C 46.6797 -5.61523 43.0176 -5.66406 40.918 -3.51562 Z M 86.2793 15.332 C 86.2793 12.3047 83.7402 9.76562 80.7617 9.76562 C 77.7344 9.76562 75.1953 12.3047 75.1953 15.332 L 75.1953 28.5156 C 75.1953 31.4941 77.7344 34.082 80.7617 34.082 C 83.7402 34.082 86.2793 31.4941 86.2793 28.5156 Z"/>
  </g>
  <g id="Regular-L" transform="matrix(1 0 0 1 1370.67 1556)">
   <path d="M 83.8867 -98.8281 C 83.8867 -101.367 81.6895 -103.564 79.1504 -103.564 C 76.6113 -103.564 74.4629 -101.367 74.4629 -98.8281 L 74.4629 -85.2539 C 74.4629 -82.666 76.6113 -80.5176 79.1504 -80.5176 C 81.6895 -80.5176 83.8867 -82.666 83.8867 -85.2539 Z M 110.889 -73.877 C 109.082 -72.0703 109.082 -69.043 110.889 -67.2363 C 112.744 -65.4297 115.723 -65.3809 117.578 -67.2363 L 127.246 -76.9043 C 129.053 -78.7109 129.053 -81.7871 127.246 -83.5938 C 125.439 -85.4004 122.412 -85.4004 120.605 -83.5938 Z M 40.7227 -67.2363 C 42.4805 -65.4297 45.5078 -65.4297 47.3145 -67.2363 C 49.1699 -68.9941 49.1699 -72.1191 47.4121 -73.877 L 37.793 -83.5938 C 36.0352 -85.3516 32.959 -85.4004 31.1523 -83.5938 C 29.3457 -81.7871 29.3457 -78.7109 31.1035 -76.9531 Z M 79.1016 -66.9922 C 61.9141 -66.9922 47.7051 -52.7344 47.7051 -35.498 C 47.7051 -18.2617 61.9141 -4.05273 79.1016 -4.05273 C 96.2891 -4.05273 110.547 -18.2617 110.547 -35.498 C 110.547 -52.7344 96.2891 -66.9922 79.1016 -66.9922 Z M 79.1016 -58.7402 C 91.7969 -58.7402 102.295 -48.1934 102.295 -35.498 C 102.295 -22.8027 91.7969 -12.3047 79.1016 -12.3047 C 66.4062 -12.3047 55.9082 -22.8027 55.9082 -35.498 C 55.9082 -48.1934 66.4062 -58.7402 79.1016 -58.7402 Z M 142.334 -30.8105 C 144.873 -30.8105 147.07 -32.959 147.07 -35.498 C 147.07 -38.0371 144.873 -40.2344 142.334 -40.2344 L 128.809 -40.2344 C 126.221 -40.2344 124.072 -38.0371 124.072 -35.498 C 124.072 -32.959 126.221 -30.8105 128.809 -30.8105 Z M 16.0156 -40.2344 C 13.4277 -40.2344 11.2793 -38.0371 11.2793 -35.498 C 11.2793 -32.959 13.4277 -30.8105 16.0156 -30.8105 L 29.541 -30.8105 C 32.0801 -30.8105 34.2773 -32.959 34.2773 -35.498 C 34.2773 -38.0371 32.0801 -40.2344 29.541 -40.2344 Z M 117.529 -3.71094 C 115.723 -5.51758 112.744 -5.51758 110.889 -3.71094 C 109.082 -1.9043 109.082 1.07422 110.889 2.92969 L 120.605 12.5977 C 122.412 14.4043 125.439 14.3555 127.246 12.5488 C 129.053 10.7422 129.053 7.76367 127.246 5.9082 Z M 31.0547 5.85938 C 29.248 7.66602 29.248 10.6934 31.0059 12.5 C 32.8125 14.3066 35.8887 14.3555 37.6953 12.5488 L 47.3145 2.92969 C 49.1699 1.17188 49.1699 -1.85547 47.4121 -3.66211 C 45.6055 -5.51758 42.5293 -5.51758 40.7227 -3.66211 Z M 83.8867 14.209 C 83.8867 11.6699 81.6895 9.52148 79.1504 9.52148 C 76.6113 9.52148 74.4629 11.6699 74.4629 14.209 L 74.4629 27.7832 C 74.4629 30.3711 76.6113 32.5195 79.1504 32.5195 C 81.6895 32.5195 83.8867 30.3711 83.8867 27.7832 Z"/>
  </g>
  <g id="Light-L" transform="matrix(1 0 0 1 1074.4 1556)">
   <path d="M 82.373 -99.4141 C 82.373 -101.367 80.7129 -103.076 78.7598 -103.076 C 76.8066 -103.076 75.0977 -101.367 75.0977 -99.4141 L 75.0977 -85.3516 C 75.0977 -83.3984 76.8066 -81.6895 78.7598 -81.6895 C 80.7129 -81.6895 82.373 -83.3984 82.373 -85.3516 Z M 111.328 -73.1934 C 109.912 -71.8262 109.912 -69.5312 111.328 -68.1152 C 112.744 -66.6992 115.039 -66.6504 116.455 -68.1152 L 126.465 -78.0762 C 127.881 -79.4922 127.881 -81.8359 126.465 -83.2031 C 125.049 -84.6191 122.754 -84.6191 121.338 -83.2031 Z M 40.9668 -68.1152 C 42.2852 -66.6992 44.6777 -66.6992 46.0449 -68.1152 C 47.4609 -69.4336 47.4609 -71.8262 46.0938 -73.1934 L 36.1816 -83.2031 C 34.8633 -84.6191 32.4707 -84.6191 31.0547 -83.2031 C 29.6387 -81.8848 29.6387 -79.4922 31.0059 -78.125 Z M 78.6621 -66.0156 C 61.9629 -66.0156 48.1445 -52.1973 48.1445 -35.498 C 48.1445 -18.7988 61.9629 -4.98047 78.6621 -4.98047 C 95.3125 -4.98047 109.131 -18.7988 109.131 -35.498 C 109.131 -52.1973 95.3125 -66.0156 78.6621 -66.0156 Z M 78.6621 -59.668 C 91.8457 -59.668 102.783 -48.7305 102.783 -35.498 C 102.783 -22.3145 91.8457 -11.377 78.6621 -11.377 C 65.4297 -11.377 54.4922 -22.3145 54.4922 -35.498 C 54.4922 -48.7305 65.4297 -59.668 78.6621 -59.668 Z M 142.578 -31.8848 C 144.531 -31.8848 146.191 -33.5449 146.191 -35.498 C 146.191 -37.4512 144.531 -39.1602 142.578 -39.1602 L 128.516 -39.1602 C 126.562 -39.1602 124.854 -37.4512 124.854 -35.498 C 124.854 -33.5449 126.562 -31.8848 128.516 -31.8848 Z M 14.9414 -39.1602 C 12.9883 -39.1602 11.2793 -37.4512 11.2793 -35.498 C 11.2793 -33.5449 12.9883 -31.8848 14.9414 -31.8848 L 28.9551 -31.8848 C 30.9082 -31.8848 32.6172 -33.5449 32.6172 -35.498 C 32.6172 -37.4512 30.9082 -39.1602 28.9551 -39.1602 Z M 116.455 -2.88086 C 115.039 -4.29688 112.744 -4.29688 111.328 -2.88086 C 109.912 -1.46484 109.912 0.830078 111.328 2.24609 L 121.338 12.2559 C 122.754 13.623 125.049 13.623 126.465 12.207 C 127.881 10.791 127.881 8.49609 126.465 7.08008 Z M 30.957 7.08008 C 29.5898 8.39844 29.5898 10.791 30.957 12.1582 C 32.2754 13.5742 34.668 13.623 36.084 12.207 L 46.0449 2.29492 C 47.4609 0.927734 47.4609 -1.41602 46.0938 -2.83203 C 44.7266 -4.24805 42.3828 -4.24805 40.9668 -2.83203 Z M 82.373 14.3066 C 82.373 12.3535 80.7129 10.6934 78.7598 10.6934 C 76.8066 10.6934 75.0977 12.3535 75.0977 14.3066 L 75.0977 28.418 C 75.0977 30.3711 76.8066 32.0312 78.7598 32.0312 C 80.7129 32.0312 82.373 30.3711 82.373 28.418 Z"/>
  </g>
  <g id="Thin-L" transform="matrix(1 0 0 1 778.248 1556)">
   <path d="M 80.4199 -100.195 C 80.4199 -101.367 79.3457 -102.441 78.1738 -102.441 C 77.002 -102.441 75.9277 -101.367 75.9277 -100.195 L 75.9277 -85.498 C 75.9277 -84.3262 77.002 -83.252 78.1738 -83.252 C 79.3457 -83.252 80.4199 -84.3262 80.4199 -85.498 Z M 111.914 -72.3145 C 111.035 -71.4844 111.035 -70.1172 111.914 -69.2383 C 112.744 -68.3594 114.111 -68.3594 114.99 -69.2383 L 125.439 -79.6387 C 126.27 -80.5176 126.27 -81.8848 125.439 -82.7637 C 124.561 -83.6426 123.193 -83.6426 122.314 -82.7637 Z M 41.2598 -69.2383 C 42.041 -68.3594 43.5059 -68.3594 44.3848 -69.2383 C 45.2637 -70.0195 45.2637 -71.4844 44.3848 -72.3145 L 34.0332 -82.7637 C 33.252 -83.6426 31.7871 -83.6426 30.957 -82.7637 C 30.0781 -81.9824 30.0781 -80.5176 30.9082 -79.6387 Z M 78.0273 -64.7949 C 62.0117 -64.7949 48.7305 -51.5137 48.7305 -35.498 C 48.7305 -19.4824 62.0117 -6.25 78.0273 -6.25 C 94.043 -6.25 107.324 -19.4824 107.324 -35.498 C 107.324 -51.5137 94.043 -64.7949 78.0273 -64.7949 Z M 78.0273 -60.9375 C 91.9434 -60.9375 103.418 -49.4141 103.418 -35.498 C 103.418 -21.6309 91.9434 -10.1074 78.0273 -10.1074 C 64.1602 -10.1074 52.6367 -21.6309 52.6367 -35.498 C 52.6367 -49.4141 64.1602 -60.9375 78.0273 -60.9375 Z M 142.871 -33.3008 C 144.043 -33.3008 145.068 -34.3262 145.068 -35.498 C 145.068 -36.6699 144.043 -37.7441 142.871 -37.7441 L 128.125 -37.7441 C 126.953 -37.7441 125.928 -36.6699 125.928 -35.498 C 125.928 -34.3262 126.953 -33.3008 128.125 -33.3008 Z M 13.5254 -37.7441 C 12.3535 -37.7441 11.2793 -36.6699 11.2793 -35.498 C 11.2793 -34.3262 12.3535 -33.3008 13.5254 -33.3008 L 28.2227 -33.3008 C 29.3945 -33.3008 30.4199 -34.3262 30.4199 -35.498 C 30.4199 -36.6699 29.3945 -37.7441 28.2227 -37.7441 Z M 114.99 -1.80664 C 114.111 -2.63672 112.744 -2.63672 111.914 -1.80664 C 111.035 -0.927734 111.035 0.439453 111.914 1.31836 L 122.314 11.7676 C 123.193 12.5977 124.561 12.5977 125.439 11.7188 C 126.27 10.8887 126.27 9.52148 125.439 8.64258 Z M 30.8594 8.64258 C 29.9805 9.42383 29.9805 10.8887 30.8594 11.7188 C 31.6406 12.5977 33.1055 12.5977 33.9355 11.7188 L 44.3848 1.41602 C 45.2637 0.585938 45.2637 -0.830078 44.3848 -1.70898 C 43.6035 -2.58789 42.1387 -2.58789 41.2598 -1.70898 Z M 80.4199 14.4531 C 80.4199 13.2812 79.3457 12.2559 78.1738 12.2559 C 77.002 12.2559 75.9277 13.2812 75.9277 14.4531 L 75.9277 29.1992 C 75.9277 30.3711 77.002 31.3965 78.1738 31.3965 C 79.3457 31.3965 80.4199 30.3711 80.4199 29.1992 Z"/>
  </g>
  <g id="Ultralight-L" transform="matrix(1 0 0 1 481.83 1556)">
   <path d="M 79.3945 -100.586 C 79.3945 -101.367 78.6621 -102.1 77.8809 -102.1 C 77.0996 -102.1 76.3672 -101.367 76.3672 -100.586 L 76.3672 -85.5469 C 76.3672 -84.8145 77.0996 -84.082 77.8809 -84.082 C 78.6621 -84.082 79.3945 -84.8145 79.3945 -85.5469 Z M 41.4551 -69.8242 C 41.9434 -69.2383 42.9199 -69.2383 43.5059 -69.8242 C 44.0918 -70.3125 44.0918 -71.2891 43.5059 -71.875 L 32.959 -82.5195 C 32.4219 -83.1055 31.4453 -83.1055 30.8594 -82.5195 C 30.2734 -82.0312 30.2734 -81.0547 30.8594 -80.4688 Z M 112.207 -71.875 C 111.572 -71.2891 111.572 -70.4102 112.207 -69.8242 C 112.793 -69.2383 113.672 -69.2383 114.258 -69.8242 L 124.902 -80.4688 C 125.488 -81.0547 125.488 -81.9336 124.902 -82.5195 C 124.316 -83.1055 123.389 -83.1055 122.803 -82.5195 Z M 77.7344 -64.1602 C 62.0605 -64.1602 49.0723 -51.1719 49.0723 -35.498 C 49.0723 -19.8242 62.0605 -6.88477 77.7344 -6.88477 C 93.4082 -6.88477 106.348 -19.8242 106.348 -35.498 C 106.348 -51.1719 93.4082 -64.1602 77.7344 -64.1602 Z M 77.7344 -61.5723 C 91.9434 -61.5723 103.76 -49.7559 103.76 -35.498 C 103.76 -21.2891 91.9434 -9.47266 77.7344 -9.47266 C 63.4766 -9.47266 51.6602 -21.2891 51.6602 -35.498 C 51.6602 -49.7559 63.4766 -61.5723 77.7344 -61.5723 Z M 143.018 -34.0332 C 143.75 -34.0332 144.482 -34.7168 144.482 -35.498 C 144.482 -36.2793 143.75 -37.0117 143.018 -37.0117 L 127.979 -37.0117 C 127.197 -37.0117 126.465 -36.2793 126.465 -35.498 C 126.465 -34.7168 127.197 -34.0332 127.979 -34.0332 Z M 12.793 -37.0117 C 12.0117 -37.0117 11.2793 -36.2793 11.2793 -35.498 C 11.2793 -34.7168 12.0117 -34.0332 12.793 -34.0332 L 27.832 -34.0332 C 28.6133 -34.0332 29.2969 -34.7168 29.2969 -35.498 C 29.2969 -36.2793 28.6133 -37.0117 27.832 -37.0117 Z M 114.258 -1.2207 C 113.672 -1.80664 112.793 -1.80664 112.207 -1.2207 C 111.572 -0.634766 111.572 0.244141 112.207 0.878906 L 122.803 11.4746 C 123.389 12.1094 124.316 12.1094 124.902 11.5234 C 125.488 10.8887 125.488 10.0098 124.902 9.42383 Z M 30.8105 9.42383 C 30.2246 9.91211 30.2246 10.9375 30.8105 11.5234 C 31.2988 12.1094 32.2754 12.1094 32.8613 11.5234 L 43.5059 0.927734 C 44.0918 0.439453 44.0918 -0.537109 43.5059 -1.12305 C 43.0176 -1.70898 42.041 -1.70898 41.4551 -1.12305 Z M 79.3945 14.5508 C 79.3945 13.7695 78.6621 13.0371 77.8809 13.0371 C 77.0996 13.0371 76.3672 13.7695 76.3672 14.5508 L 76.3672 29.5898 C 76.3672 30.3711 77.0996 31.1035 77.8809 31.1035 C 78.6621 31.1035 79.3945 30.3711 79.3945 29.5898 Z"/>
  </g>
  <g id="Black-M" transform="matrix(1 0 0 1 2862.65 1126)">
   <path d="M 78.8086 -89.1113 C 78.8086 -93.5059 75.0977 -97.2656 70.7031 -97.2656 C 66.3086 -97.2656 62.5977 -93.5059 62.5977 -89.1113 L 62.5977 -80.7129 C 62.5977 -76.3184 66.3086 -72.6074 70.7031 -72.6074 C 75.0977 -72.6074 78.8086 -76.3184 78.8086 -80.7129 Z M 32.8125 -61.6211 C 35.9375 -58.4961 41.2598 -58.3984 44.2871 -61.4258 C 47.4121 -64.5996 47.5098 -69.9219 44.4824 -72.9492 L 38.5742 -78.9062 C 35.498 -81.9824 30.127 -82.1289 27.1484 -79.1016 C 23.9746 -75.9277 23.9258 -70.6055 26.9531 -67.5781 Z M 96.9727 -72.9492 C 93.9453 -69.9219 93.9941 -64.5996 97.168 -61.4258 C 100.146 -58.3984 105.518 -58.4961 108.594 -61.6211 L 114.502 -67.5781 C 117.48 -70.6055 117.432 -75.9277 114.307 -79.1016 C 111.279 -82.1289 105.908 -81.9824 102.832 -78.9062 Z M 70.7031 -64.9414 C 54.541 -64.9414 41.2109 -51.6602 41.2109 -35.4492 C 41.2109 -19.2383 54.541 -5.95703 70.7031 -5.95703 C 86.9141 -5.95703 100.244 -19.2383 100.244 -35.4492 C 100.244 -51.6602 86.9141 -64.9414 70.7031 -64.9414 Z M 70.7031 -47.7539 C 77.3926 -47.7539 83.0078 -42.1387 83.0078 -35.4492 C 83.0078 -28.7598 77.3926 -23.1445 70.7031 -23.1445 C 64.0625 -23.1445 58.3984 -28.7598 58.3984 -35.4492 C 58.3984 -42.1387 64.0625 -47.7539 70.7031 -47.7539 Z M 124.561 -27.3438 C 128.955 -27.3438 132.764 -31.0547 132.764 -35.4492 C 132.764 -39.8438 128.955 -43.5547 124.561 -43.5547 L 116.211 -43.5547 C 111.816 -43.5547 108.105 -39.8438 108.105 -35.4492 C 108.105 -31.0547 111.816 -27.3438 116.211 -27.3438 Z M 16.8457 -43.5547 C 12.4512 -43.5547 8.74023 -39.8438 8.74023 -35.4492 C 8.74023 -31.0547 12.4512 -27.3438 16.8457 -27.3438 L 25.2441 -27.3438 C 29.6387 -27.3438 33.3984 -31.0547 33.3984 -35.4492 C 33.3984 -39.8438 29.6387 -43.5547 25.2441 -43.5547 Z M 108.447 -9.375 C 105.469 -12.4023 100.098 -12.3535 96.9727 -9.22852 C 93.9453 -6.20117 93.9941 -0.927734 97.168 2.24609 L 103.125 8.1543 C 106.104 11.1328 111.475 11.084 114.6 7.95898 C 117.627 4.93164 117.578 -0.439453 114.404 -3.51562 Z M 27.002 -3.51562 C 23.877 -0.439453 23.7793 4.93164 26.8066 7.95898 C 29.9805 11.084 35.3027 11.1328 38.3301 8.1543 L 44.2871 2.24609 C 47.4121 -0.927734 47.5098 -6.20117 44.4824 -9.22852 C 41.3086 -12.3535 35.9863 -12.4023 32.959 -9.375 Z M 78.8086 9.86328 C 78.8086 5.41992 75.0977 1.70898 70.7031 1.70898 C 66.3086 1.70898 62.5977 5.41992 62.5977 9.86328 L 62.5977 18.2129 C 62.5977 22.6074 66.3086 26.416 70.7031 26.416 C 75.0977 26.416 78.8086 22.6074 78.8086 18.2129 Z"/>
  </g>
  <g id="Heavy-M" transform="matrix(1 0 0 1 2568.11 1126)">
   <path d="M 75.7812 -87.9395 C 75.7812 -91.8457 72.4609 -95.2148 68.5547 -95.2148 C 64.6484 -95.2148 61.377 -91.8457 61.377 -87.9395 L 61.377 -79.1504 C 61.377 -75.1953 64.6484 -71.9238 68.5547 -71.9238 C 72.4609 -71.9238 75.7812 -75.1953 75.7812 -79.1504 Z M 94.2871 -71.1914 C 91.6016 -68.5059 91.6504 -63.7695 94.4336 -60.9863 C 97.1191 -58.3008 101.855 -58.3496 104.639 -61.1328 L 110.84 -67.4316 C 113.525 -70.1172 113.477 -74.8535 110.693 -77.6367 C 108.008 -80.3223 103.271 -80.2246 100.537 -77.4902 Z M 32.5195 -61.1328 C 35.2539 -58.3496 39.9902 -58.3008 42.6758 -60.9863 C 45.459 -63.7695 45.5078 -68.5059 42.8223 -71.1914 L 36.6211 -77.4902 C 33.8867 -80.2246 29.1504 -80.3223 26.416 -77.6367 C 23.6328 -74.8535 23.584 -70.1172 26.2695 -67.4316 Z M 68.5547 -63.8672 C 52.9785 -63.8672 40.1367 -51.0254 40.1367 -35.4492 C 40.1367 -19.873 52.9785 -7.03125 68.5547 -7.03125 C 84.1309 -7.03125 96.9727 -19.873 96.9727 -35.4492 C 96.9727 -51.0254 84.1309 -63.8672 68.5547 -63.8672 Z M 68.5547 -48.9746 C 75.8789 -48.9746 82.0801 -42.7734 82.0801 -35.4492 C 82.0801 -28.0762 75.8789 -21.9238 68.5547 -21.9238 C 61.2305 -21.9238 55.0293 -28.0762 55.0293 -35.4492 C 55.0293 -42.7734 61.2305 -48.9746 68.5547 -48.9746 Z M 121.191 -28.2227 C 125.098 -28.2227 128.418 -31.543 128.418 -35.4492 C 128.418 -39.3555 125.098 -42.6758 121.191 -42.6758 L 112.354 -42.6758 C 108.447 -42.6758 105.176 -39.3555 105.176 -35.4492 C 105.176 -31.543 108.447 -28.2227 112.354 -28.2227 Z M 15.9668 -42.6758 C 12.0605 -42.6758 8.74023 -39.3555 8.74023 -35.4492 C 8.74023 -31.543 12.0605 -28.2227 15.9668 -28.2227 L 24.7559 -28.2227 C 28.6621 -28.2227 32.0312 -31.543 32.0312 -35.4492 C 32.0312 -39.3555 28.6621 -42.6758 24.7559 -42.6758 Z M 104.492 -9.86328 C 101.807 -12.5488 97.0703 -12.5 94.2871 -9.7168 C 91.6016 -6.98242 91.6504 -2.34375 94.4336 0.439453 L 100.732 6.68945 C 103.418 9.375 108.154 9.32617 110.938 6.54297 C 113.623 3.85742 113.574 -0.878906 110.791 -3.61328 Z M 26.3184 -3.61328 C 23.5352 -0.878906 23.4863 3.85742 26.1719 6.54297 C 28.9551 9.32617 33.6914 9.375 36.377 6.68945 L 42.6758 0.488281 C 45.459 -2.29492 45.5078 -6.98242 42.8223 -9.7168 C 40.0391 -12.5 35.3027 -12.5488 32.6172 -9.86328 Z M 75.7812 8.25195 C 75.7812 4.3457 72.4609 1.02539 68.5547 1.02539 C 64.6484 1.02539 61.377 4.3457 61.377 8.25195 L 61.377 17.041 C 61.377 20.9473 64.6484 24.3164 68.5547 24.3164 C 72.4609 24.3164 75.7812 20.9473 75.7812 17.041 Z"/>
  </g>
  <g id="Bold-M" transform="matrix(1 0 0 1 2273.82 1126)">
   <path d="M 72.3633 -86.6699 C 72.3633 -89.9902 69.5312 -92.8711 66.1621 -92.8711 C 62.793 -92.8711 59.9609 -89.9902 59.9609 -86.6699 L 59.9609 -77.3438 C 59.9609 -73.9746 62.793 -71.1426 66.1621 -71.1426 C 69.5312 -71.1426 72.3633 -73.9746 72.3633 -77.3438 Z M 91.3086 -69.2383 C 89.0137 -66.9434 89.0625 -62.8906 91.4062 -60.498 C 93.75 -58.1543 97.8027 -58.2031 100.195 -60.5957 L 106.787 -67.2363 C 109.082 -69.5312 109.033 -73.584 106.689 -75.9766 C 104.346 -78.3203 100.293 -78.2715 97.9492 -75.8789 Z M 32.1289 -60.5957 C 34.4727 -58.2031 38.5254 -58.1543 40.8691 -60.498 C 43.2129 -62.8418 43.2617 -66.9434 40.9668 -69.2383 L 34.375 -75.8789 C 32.0312 -78.2227 27.9785 -78.3203 25.6836 -75.9766 C 23.291 -73.6328 23.2422 -69.5312 25.5371 -67.2363 Z M 66.1621 -62.6465 C 51.2207 -62.6465 38.9648 -50.3906 38.9648 -35.4492 C 38.9648 -20.5078 51.2207 -8.25195 66.1621 -8.25195 C 81.0547 -8.25195 93.3105 -20.5078 93.3105 -35.4492 C 93.3105 -50.3906 81.0547 -62.6465 66.1621 -62.6465 Z M 66.1621 -50.3418 C 74.2676 -50.3418 81.0059 -43.5547 81.0059 -35.4492 C 81.0059 -27.3438 74.2676 -20.5566 66.1621 -20.5566 C 58.0566 -20.5566 51.2695 -27.3438 51.2695 -35.4492 C 51.2695 -43.5547 58.0566 -50.3418 66.1621 -50.3418 Z M 117.383 -29.248 C 120.752 -29.248 123.584 -32.0801 123.584 -35.4492 C 123.584 -38.8184 120.752 -41.6504 117.383 -41.6504 L 108.105 -41.6504 C 104.736 -41.6504 101.904 -38.8184 101.904 -35.4492 C 101.904 -32.0801 104.736 -29.248 108.105 -29.248 Z M 14.9414 -41.6504 C 11.5723 -41.6504 8.74023 -38.8184 8.74023 -35.4492 C 8.74023 -32.0801 11.5723 -29.248 14.9414 -29.248 L 24.2188 -29.248 C 27.5879 -29.248 30.4688 -32.0801 30.4688 -35.4492 C 30.4688 -38.8184 27.5879 -41.6504 24.2188 -41.6504 Z M 100.098 -10.3516 C 97.7539 -12.6465 93.7012 -12.6465 91.3086 -10.2539 C 89.0137 -7.91016 89.0625 -3.90625 91.4062 -1.51367 L 98.0957 5.07812 C 100.391 7.42188 104.443 7.37305 106.836 4.98047 C 109.131 2.63672 109.131 -1.41602 106.738 -3.75977 Z M 25.5859 -3.75977 C 23.1934 -1.41602 23.1445 2.63672 25.4395 4.93164 C 27.832 7.32422 31.8848 7.37305 34.2285 5.07812 L 40.8691 -1.51367 C 43.2129 -3.90625 43.2617 -7.91016 40.9668 -10.2539 C 38.5742 -12.6465 34.5215 -12.6465 32.1777 -10.3516 Z M 72.3633 6.44531 C 72.3633 3.07617 69.5312 0.244141 66.1621 0.244141 C 62.793 0.244141 59.9609 3.07617 59.9609 6.44531 L 59.9609 15.7715 C 59.9609 19.0918 62.793 21.9727 66.1621 21.9727 C 69.5312 21.9727 72.3633 19.0918 72.3633 15.7715 Z"/>
  </g>
  <g id="Semibold-M" transform="matrix(1 0 0 1 1978.76 1126)">
   <path d="M 69.9707 -85.7422 C 69.9707 -88.7207 67.4805 -91.2598 64.502 -91.2598 C 61.5234 -91.2598 58.9844 -88.7207 58.9844 -85.7422 L 58.9844 -76.0742 C 58.9844 -73.0957 61.5234 -70.6055 64.502 -70.6055 C 67.4805 -70.6055 69.9707 -73.0957 69.9707 -76.0742 Z M 89.3066 -67.9199 C 87.207 -65.8203 87.2559 -62.2559 89.3555 -60.1562 C 91.4062 -58.1055 94.9707 -58.0566 97.1191 -60.2051 L 103.955 -67.0898 C 106.006 -69.1406 106.006 -72.7539 103.906 -74.8535 C 101.807 -76.9531 98.2422 -76.9043 96.1426 -74.8047 Z M 31.8848 -60.2051 C 33.9355 -58.1055 37.5 -58.1055 39.5996 -60.1562 C 41.6992 -62.2559 41.748 -65.8691 39.6973 -67.9199 L 32.8613 -74.8047 C 30.8105 -76.8555 27.1973 -76.9531 25.1465 -74.8535 C 22.998 -72.7539 22.998 -69.1406 25.0488 -67.1387 Z M 64.4531 -61.8164 C 50.0488 -61.8164 38.1348 -49.9023 38.1348 -35.4492 C 38.1348 -20.9961 50.0488 -9.08203 64.4531 -9.08203 C 78.9062 -9.08203 90.8203 -20.9961 90.8203 -35.4492 C 90.8203 -49.9023 78.9062 -61.8164 64.4531 -61.8164 Z M 64.4531 -51.2695 C 73.0957 -51.2695 80.2734 -44.0918 80.2734 -35.4492 C 80.2734 -26.8066 73.0957 -19.6289 64.4531 -19.6289 C 55.8594 -19.6289 48.6816 -26.8066 48.6816 -35.4492 C 48.6816 -44.0918 55.8594 -51.2695 64.4531 -51.2695 Z M 114.746 -29.9805 C 117.725 -29.9805 120.264 -32.4707 120.264 -35.4492 C 120.264 -38.4277 117.725 -40.918 114.746 -40.918 L 105.127 -40.918 C 102.148 -40.918 99.6582 -38.4277 99.6582 -35.4492 C 99.6582 -32.4707 102.148 -29.9805 105.127 -29.9805 Z M 14.209 -40.918 C 11.2305 -40.918 8.74023 -38.4277 8.74023 -35.4492 C 8.74023 -32.4707 11.2305 -29.9805 14.209 -29.9805 L 23.877 -29.9805 C 26.8555 -29.9805 29.3457 -32.4707 29.3457 -35.4492 C 29.3457 -38.4277 26.8555 -40.918 23.877 -40.918 Z M 97.0215 -10.6934 C 94.9707 -12.7441 91.4062 -12.7441 89.3066 -10.6445 C 87.207 -8.54492 87.2559 -5.0293 89.3555 -2.88086 L 96.2402 4.00391 C 98.3398 6.05469 101.855 6.00586 104.004 3.90625 C 106.055 1.80664 106.055 -1.75781 103.955 -3.85742 Z M 25.0488 -3.85742 C 22.9492 -1.80664 22.9004 1.80664 24.9512 3.85742 C 27.0508 5.95703 30.6641 6.00586 32.7148 3.95508 L 39.5996 -2.88086 C 41.6992 -4.98047 41.748 -8.54492 39.6973 -10.5957 C 37.5977 -12.7441 33.9844 -12.7441 31.8848 -10.6934 Z M 69.9707 5.17578 C 69.9707 2.19727 67.4805 -0.292969 64.502 -0.292969 C 61.5234 -0.292969 58.9844 2.19727 58.9844 5.17578 L 58.9844 14.8438 C 58.9844 17.8223 61.5234 20.3613 64.502 20.3613 C 67.4805 20.3613 69.9707 17.8223 69.9707 14.8438 Z"/>
  </g>
  <g id="Medium-M" transform="matrix(1 0 0 1 1683.32 1126)">
   <path d="M 68.2129 -85.0586 C 68.2129 -87.7441 65.918 -90.0391 63.2324 -90.0391 C 60.5469 -90.0391 58.3008 -87.7441 58.3008 -85.0586 L 58.3008 -75.1465 C 58.3008 -72.4609 60.5469 -70.2148 63.2324 -70.2148 C 65.918 -70.2148 68.2129 -72.4609 68.2129 -75.1465 Z M 87.7441 -66.8945 C 85.8398 -64.9902 85.8398 -61.8164 87.793 -59.9121 C 89.6484 -58.0078 92.8711 -58.0078 94.7754 -59.9609 L 101.807 -66.9922 C 103.711 -68.8477 103.711 -72.1191 101.807 -74.0234 C 99.9023 -75.8789 96.7285 -75.8789 94.8242 -73.9746 Z M 31.6895 -59.9609 C 33.5449 -58.0078 36.7676 -58.0078 38.6719 -59.9121 C 40.5762 -61.7676 40.5762 -65.0391 38.7207 -66.8945 L 31.6895 -73.9746 C 29.834 -75.8301 26.6113 -75.8789 24.707 -74.0234 C 22.8027 -72.1191 22.8027 -68.8477 24.6582 -67.041 Z M 63.2324 -61.1816 C 49.1699 -61.1816 37.5 -49.5605 37.5 -35.4492 C 37.5 -21.3379 49.1699 -9.7168 63.2324 -9.7168 C 77.2949 -9.7168 88.916 -21.3379 88.916 -35.4492 C 88.916 -49.5605 77.2949 -61.1816 63.2324 -61.1816 Z M 63.2324 -51.9531 C 72.2168 -51.9531 79.7363 -44.4824 79.7363 -35.4492 C 79.7363 -26.416 72.2168 -18.9453 63.2324 -18.9453 C 54.1992 -18.9453 46.6797 -26.416 46.6797 -35.4492 C 46.6797 -44.4824 54.1992 -51.9531 63.2324 -51.9531 Z M 112.793 -30.4688 C 115.479 -30.4688 117.725 -32.7637 117.725 -35.4492 C 117.725 -38.1348 115.479 -40.3809 112.793 -40.3809 L 102.881 -40.3809 C 100.195 -40.3809 97.9492 -38.1348 97.9492 -35.4492 C 97.9492 -32.7637 100.195 -30.4688 102.881 -30.4688 Z M 13.7207 -40.3809 C 10.9863 -40.3809 8.74023 -38.1348 8.74023 -35.4492 C 8.74023 -32.7637 10.9863 -30.4688 13.7207 -30.4688 L 23.584 -30.4688 C 26.2695 -30.4688 28.5645 -32.7637 28.5645 -35.4492 C 28.5645 -38.1348 26.2695 -40.3809 23.584 -40.3809 Z M 94.7266 -10.9375 C 92.8223 -12.8418 89.6484 -12.793 87.7441 -10.8887 C 85.8398 -9.0332 85.8398 -5.85938 87.793 -3.90625 L 94.873 3.125 C 96.7285 5.0293 99.9512 4.98047 101.855 3.07617 C 103.711 1.17188 103.711 -2.00195 101.807 -3.90625 Z M 24.6582 -3.95508 C 22.7539 -2.05078 22.7051 1.17188 24.5605 3.02734 C 26.4648 4.93164 29.7363 4.98047 31.5918 3.125 L 38.6719 -3.90625 C 40.5762 -5.81055 40.5762 -9.0332 38.7207 -10.8887 C 36.8164 -12.793 33.5938 -12.793 31.6895 -10.9375 Z M 68.2129 4.24805 C 68.2129 1.5625 65.918 -0.683594 63.2324 -0.683594 C 60.5469 -0.683594 58.3008 1.5625 58.3008 4.24805 L 58.3008 14.1602 C 58.3008 16.8457 60.5469 19.1406 63.2324 19.1406 C 65.918 19.1406 68.2129 16.8457 68.2129 14.1602 Z"/>
  </g>
  <g id="Regular-M" transform="matrix(1 0 0 1 1388.25 1126)">
   <path d="M 65.8691 -84.1797 C 65.8691 -86.4746 63.916 -88.4277 61.5723 -88.4277 C 59.2773 -88.4277 57.3242 -86.4746 57.3242 -84.1797 L 57.3242 -73.9258 C 57.3242 -71.6309 59.2773 -69.6777 61.5723 -69.6777 C 63.916 -69.6777 65.8691 -71.6309 65.8691 -73.9258 Z M 85.6934 -65.5762 C 84.082 -63.916 84.082 -61.1816 85.6934 -59.5703 C 87.3535 -57.9102 90.0879 -57.8613 91.748 -59.5703 L 99.0234 -66.8457 C 100.684 -68.5059 100.684 -71.2402 99.0234 -72.9004 C 97.4121 -74.5117 94.6777 -74.5117 93.0664 -72.9004 Z M 31.3965 -59.5703 C 33.0566 -57.9102 35.791 -57.9102 37.4023 -59.5703 C 39.0625 -61.1328 39.0625 -63.9648 37.4512 -65.5762 L 30.1758 -72.9004 C 28.6133 -74.4629 25.8301 -74.5117 24.1699 -72.9004 C 22.5586 -71.2891 22.5586 -68.5059 24.1211 -66.8945 Z M 61.5723 -60.3516 C 47.9492 -60.3516 36.6699 -49.0723 36.6699 -35.4492 C 36.6699 -21.8262 47.9492 -10.498 61.5723 -10.498 C 75.1465 -10.498 86.4258 -21.8262 86.4258 -35.4492 C 86.4258 -49.0723 75.1465 -60.3516 61.5723 -60.3516 Z M 61.5723 -52.8809 C 71.0938 -52.8809 79.0039 -44.9707 79.0039 -35.4492 C 79.0039 -25.9277 71.0938 -17.9688 61.5723 -17.9688 C 52.002 -17.9688 44.0918 -25.9277 44.0918 -35.4492 C 44.0918 -44.9707 52.002 -52.8809 61.5723 -52.8809 Z M 110.156 -31.2012 C 112.5 -31.2012 114.453 -33.1543 114.453 -35.4492 C 114.453 -37.7441 112.5 -39.6973 110.156 -39.6973 L 99.9512 -39.6973 C 97.6562 -39.6973 95.7031 -37.7441 95.7031 -35.4492 C 95.7031 -33.1543 97.6562 -31.2012 99.9512 -31.2012 Z M 12.9883 -39.6973 C 10.6934 -39.6973 8.74023 -37.7441 8.74023 -35.4492 C 8.74023 -33.1543 10.6934 -31.2012 12.9883 -31.2012 L 23.1934 -31.2012 C 25.5371 -31.2012 27.4902 -33.1543 27.4902 -35.4492 C 27.4902 -37.7441 25.5371 -39.6973 23.1934 -39.6973 Z M 91.6992 -11.2793 C 90.0879 -12.8906 87.3535 -12.8906 85.6934 -11.2793 C 84.082 -9.66797 84.082 -6.93359 85.6934 -5.27344 L 93.0664 2.05078 C 94.6777 3.66211 97.4121 3.61328 99.0234 2.00195 C 100.684 0.390625 100.684 -2.34375 99.0234 -4.00391 Z M 24.1211 -4.05273 C 22.5098 -2.44141 22.5098 0.341797 24.0723 1.95312 C 25.6836 3.56445 28.4668 3.61328 30.127 2.00195 L 37.4023 -5.27344 C 39.0625 -6.88477 39.0625 -9.61914 37.4512 -11.2793 C 35.8398 -12.8906 33.0566 -12.8906 31.3965 -11.2793 Z M 65.8691 3.02734 C 65.8691 0.732422 63.916 -1.2207 61.5723 -1.2207 C 59.2773 -1.2207 57.3242 0.732422 57.3242 3.02734 L 57.3242 13.2812 C 57.3242 15.5762 59.2773 17.5293 61.5723 17.5293 C 63.916 17.5293 65.8691 15.5762 65.8691 13.2812 Z"/>
  </g>
  <g id="Light-M" transform="matrix(1 0 0 1 1091.93 1126)">
   <path d="M 64.502 -84.7168 C 64.502 -86.4746 62.9883 -88.0371 61.2305 -88.0371 C 59.4238 -88.0371 57.9102 -86.4746 57.9102 -84.7168 L 57.9102 -74.0234 C 57.9102 -72.2168 59.4238 -70.7031 61.2305 -70.7031 C 62.9883 -70.7031 64.502 -72.2168 64.502 -74.0234 Z M 86.084 -64.9414 C 84.8145 -63.6719 84.8145 -61.6211 86.084 -60.3516 C 87.3535 -59.082 89.4531 -59.0332 90.7715 -60.3516 L 98.3398 -67.9199 C 99.6094 -69.1895 99.6094 -71.2891 98.3398 -72.5586 C 97.0703 -73.8281 94.9707 -73.8281 93.7012 -72.5586 Z M 31.6406 -60.3516 C 32.8613 -59.082 35.0098 -59.082 36.2793 -60.3516 C 37.5488 -61.5234 37.5488 -63.7207 36.2793 -64.9414 L 28.7598 -72.5586 C 27.5391 -73.8281 25.3906 -73.8281 24.1211 -72.5586 C 22.8516 -71.3379 22.8516 -69.1895 24.0723 -67.9688 Z M 61.1328 -59.5215 C 47.998 -59.5215 37.1094 -48.6328 37.1094 -35.4492 C 37.1094 -22.2656 47.998 -11.377 61.1328 -11.377 C 74.3164 -11.377 85.2051 -22.2656 85.2051 -35.4492 C 85.2051 -48.6328 74.3164 -59.5215 61.1328 -59.5215 Z M 61.1328 -53.7598 C 71.1426 -53.7598 79.4434 -45.459 79.4434 -35.4492 C 79.4434 -25.4395 71.1426 -17.1387 61.1328 -17.1387 C 51.123 -17.1387 42.8711 -25.4395 42.8711 -35.4492 C 42.8711 -45.459 51.123 -53.7598 61.1328 -53.7598 Z M 110.4 -32.1289 C 112.158 -32.1289 113.672 -33.6914 113.672 -35.4492 C 113.672 -37.207 112.158 -38.7695 110.4 -38.7695 L 99.707 -38.7695 C 97.9492 -38.7695 96.4355 -37.207 96.4355 -35.4492 C 96.4355 -33.6914 97.9492 -32.1289 99.707 -32.1289 Z M 12.0605 -38.7695 C 10.2539 -38.7695 8.74023 -37.207 8.74023 -35.4492 C 8.74023 -33.6914 10.2539 -32.1289 12.0605 -32.1289 L 22.7051 -32.1289 C 24.4629 -32.1289 26.0254 -33.6914 26.0254 -35.4492 C 26.0254 -37.207 24.4629 -38.7695 22.7051 -38.7695 Z M 90.7227 -10.5469 C 89.4531 -11.8164 87.3535 -11.8164 86.084 -10.5469 C 84.8145 -9.27734 84.8145 -7.17773 86.084 -5.9082 L 93.7012 1.70898 C 94.9707 2.97852 97.0703 2.97852 98.3398 1.70898 C 99.6094 0.439453 99.6094 -1.66016 98.3398 -2.92969 Z M 24.0234 -2.97852 C 22.7539 -1.75781 22.7539 0.390625 24.0234 1.66016 C 25.2441 2.92969 27.3926 2.97852 28.6621 1.70898 L 36.2793 -5.85938 C 37.5488 -7.12891 37.5488 -9.22852 36.2793 -10.498 C 35.0586 -11.7676 32.9102 -11.7676 31.6406 -10.498 Z M 64.502 3.125 C 64.502 1.36719 62.9883 -0.195312 61.2305 -0.195312 C 59.4238 -0.195312 57.9102 1.36719 57.9102 3.125 L 57.9102 13.8184 C 57.9102 15.5762 59.4238 17.1387 61.2305 17.1387 C 62.9883 17.1387 64.502 15.5762 64.502 13.8184 Z"/>
  </g>
  <g id="Thin-M" transform="matrix(1 0 0 1 795.704 1126)">
   <path d="M 62.7441 -85.4004 C 62.7441 -86.4746 61.7676 -87.4512 60.6934 -87.4512 C 59.6191 -87.4512 58.6914 -86.4746 58.6914 -85.4004 L 58.6914 -74.1699 C 58.6914 -73.0957 59.6191 -72.1191 60.6934 -72.1191 C 61.7676 -72.1191 62.7441 -73.0957 62.7441 -74.1699 Z M 86.5723 -64.1602 C 85.791 -63.3789 85.791 -62.1094 86.5723 -61.3281 C 87.4023 -60.5469 88.6719 -60.5469 89.4531 -61.3281 L 97.4121 -69.3359 C 98.1934 -70.1172 98.1934 -71.3867 97.4121 -72.168 C 96.6309 -72.9492 95.3613 -72.9492 94.5801 -72.168 Z M 31.9336 -61.3281 C 32.666 -60.5469 33.9844 -60.5469 34.7656 -61.3281 C 35.5469 -62.0605 35.5469 -63.3789 34.7656 -64.1602 L 26.8555 -72.168 C 26.123 -72.9492 24.8047 -72.9492 23.9746 -72.168 C 23.1934 -71.4355 23.1934 -70.1172 23.9746 -69.3359 Z M 60.5957 -58.3984 C 48.0469 -58.3984 37.6465 -47.998 37.6465 -35.4492 C 37.6465 -22.9004 48.0469 -12.5 60.5957 -12.5 C 73.1445 -12.5 83.5449 -22.9004 83.5449 -35.4492 C 83.5449 -47.998 73.1445 -58.3984 60.5957 -58.3984 Z M 60.5957 -54.8828 C 71.2402 -54.8828 80.0293 -46.0449 80.0293 -35.4492 C 80.0293 -24.8535 71.2402 -16.0156 60.5957 -16.0156 C 50 -16.0156 41.1621 -24.8535 41.1621 -35.4492 C 41.1621 -46.0449 50 -54.8828 60.5957 -54.8828 Z M 110.645 -33.3984 C 111.719 -33.3984 112.695 -34.375 112.695 -35.4492 C 112.695 -36.5234 111.719 -37.5 110.645 -37.5 L 99.4141 -37.5 C 98.291 -37.5 97.3633 -36.5234 97.3633 -35.4492 C 97.3633 -34.375 98.291 -33.3984 99.4141 -33.3984 Z M 10.791 -37.5 C 9.7168 -37.5 8.74023 -36.5234 8.74023 -35.4492 C 8.74023 -34.375 9.7168 -33.3984 10.791 -33.3984 L 22.0215 -33.3984 C 23.0957 -33.3984 24.0723 -34.375 24.0723 -35.4492 C 24.0723 -36.5234 23.0957 -37.5 22.0215 -37.5 Z M 89.4531 -9.57031 C 88.6719 -10.3516 87.4023 -10.3516 86.5723 -9.57031 C 85.791 -8.74023 85.791 -7.51953 86.5723 -6.68945 L 94.5801 1.26953 C 95.3613 2.05078 96.6309 2.05078 97.4121 1.26953 C 98.1934 0.488281 98.1934 -0.78125 97.4121 -1.5625 Z M 23.9258 -1.5625 C 23.1445 -0.830078 23.1445 0.488281 23.9258 1.26953 C 24.6582 2.05078 25.9766 2.05078 26.7578 1.26953 L 34.7656 -6.64062 C 35.5469 -7.37305 35.5469 -8.69141 34.7656 -9.47266 C 34.0332 -10.3027 32.7148 -10.3027 31.9336 -9.47266 Z M 62.7441 3.27148 C 62.7441 2.19727 61.7676 1.2207 60.6934 1.2207 C 59.6191 1.2207 58.6914 2.19727 58.6914 3.27148 L 58.6914 14.502 C 58.6914 15.5762 59.6191 16.5527 60.6934 16.5527 C 61.7676 16.5527 62.7441 15.5762 62.7441 14.502 Z"/>
  </g>
  <g id="Ultralight-M" transform="matrix(1 0 0 1 499.262 1126)">
   <path d="M 61.8164 -85.791 C 61.8164 -86.4746 61.1816 -87.1582 60.4492 -87.1582 C 59.7168 -87.1582 59.082 -86.4746 59.082 -85.791 L 59.082 -74.2188 C 59.082 -73.4863 59.7168 -72.8516 60.4492 -72.8516 C 61.1816 -72.8516 61.8164 -73.4863 61.8164 -74.2188 Z M 32.0801 -61.8652 C 32.5195 -61.3281 33.4473 -61.3281 33.9844 -61.8652 C 34.5215 -62.3535 34.5215 -63.2324 33.9844 -63.7695 L 25.8789 -71.9727 C 25.3906 -72.5098 24.4629 -72.5098 23.9258 -71.9727 C 23.3887 -71.4844 23.3887 -70.5566 23.9258 -70.0195 Z M 86.8652 -63.7695 C 86.3281 -63.2324 86.3281 -62.4023 86.8652 -61.8652 C 87.4023 -61.3281 88.2324 -61.3281 88.7695 -61.8652 L 96.9727 -70.0195 C 97.5098 -70.5566 97.5098 -71.4355 96.9727 -71.9727 C 96.4355 -72.5098 95.5566 -72.5098 95.0195 -71.9727 Z M 60.3027 -57.8613 C 48.0469 -57.8613 37.9395 -47.7051 37.9395 -35.4492 C 37.9395 -23.1934 48.0469 -13.0371 60.3027 -13.0371 C 72.5586 -13.0371 82.7148 -23.1934 82.7148 -35.4492 C 82.7148 -47.7051 72.5586 -57.8613 60.3027 -57.8613 Z M 60.3027 -55.4199 C 71.2402 -55.4199 80.3223 -46.3867 80.3223 -35.4492 C 80.3223 -24.5117 71.2402 -15.4785 60.3027 -15.4785 C 49.3652 -15.4785 40.332 -24.5117 40.332 -35.4492 C 40.332 -46.3867 49.3652 -55.4199 60.3027 -55.4199 Z M 110.791 -34.082 C 111.475 -34.082 112.158 -34.7168 112.158 -35.4492 C 112.158 -36.1816 111.475 -36.8164 110.791 -36.8164 L 99.2188 -36.8164 C 98.4863 -36.8164 97.8516 -36.1816 97.8516 -35.4492 C 97.8516 -34.7168 98.4863 -34.082 99.2188 -34.082 Z M 10.1074 -36.8164 C 9.42383 -36.8164 8.74023 -36.1816 8.74023 -35.4492 C 8.74023 -34.7168 9.42383 -34.082 10.1074 -34.082 L 21.6797 -34.082 C 22.4121 -34.082 23.0469 -34.7168 23.0469 -35.4492 C 23.0469 -36.1816 22.4121 -36.8164 21.6797 -36.8164 Z M 88.7695 -9.0332 C 88.2324 -9.57031 87.4023 -9.57031 86.8652 -9.0332 C 86.3281 -8.49609 86.3281 -7.66602 86.8652 -7.12891 L 95.0195 1.07422 C 95.5566 1.61133 96.4355 1.61133 96.9727 1.07422 C 97.5098 0.537109 97.5098 -0.341797 96.9727 -0.878906 Z M 23.877 -0.878906 C 23.3398 -0.390625 23.3398 0.537109 23.877 1.07422 C 24.3652 1.61133 25.2441 1.61133 25.7812 1.07422 L 33.9844 -7.08008 C 34.5215 -7.51953 34.5215 -8.44727 33.9844 -8.98438 C 33.4961 -9.52148 32.6172 -9.52148 32.0801 -8.98438 Z M 61.8164 3.32031 C 61.8164 2.58789 61.1816 1.95312 60.4492 1.95312 C 59.7168 1.95312 59.082 2.58789 59.082 3.32031 L 59.082 14.8926 C 59.082 15.5762 59.7168 16.2598 60.4492 16.2598 C 61.1816 16.2598 61.8164 15.5762 61.8164 14.8926 Z"/>
  </g>
  <g id="Black-S" transform="matrix(1 0 0 1 2878.15 696)">
   <path d="M 61.5234 -77.3438 C 61.5234 -80.7617 58.6426 -83.6914 55.2246 -83.6914 C 51.8066 -83.6914 48.9258 -80.7617 48.9258 -77.3438 L 48.9258 -70.752 C 48.9258 -67.334 51.8066 -64.4531 55.2246 -64.4531 C 58.6426 -64.4531 61.5234 -67.334 61.5234 -70.752 Z M 25.6836 -55.8594 C 28.0762 -53.418 32.2266 -53.3691 34.5703 -55.7129 C 37.0117 -58.1543 37.0605 -62.3047 34.7168 -64.6484 L 30.0781 -69.3359 C 27.6855 -71.7285 23.5352 -71.8262 21.1914 -69.4824 C 18.75 -67.041 18.7012 -62.8906 21.0449 -60.5469 Z M 75.7324 -64.6484 C 73.3887 -62.3047 73.4375 -58.1543 75.8789 -55.7129 C 78.2227 -53.3691 82.373 -53.418 84.7656 -55.8594 L 89.4043 -60.5469 C 91.748 -62.8906 91.6992 -67.041 89.2578 -69.4824 C 86.9141 -71.8262 82.7637 -71.7285 80.3711 -69.3359 Z M 55.2246 -58.4473 C 42.5781 -58.4473 32.1777 -48.0469 32.1777 -35.4004 C 32.1777 -22.7539 42.5781 -12.3535 55.2246 -12.3535 C 67.8711 -12.3535 78.2715 -22.7539 78.2715 -35.4004 C 78.2715 -48.0469 67.8711 -58.4473 55.2246 -58.4473 Z M 55.2246 -45.1172 C 60.498 -45.1172 64.9414 -40.6738 64.9414 -35.4004 C 64.9414 -30.127 60.498 -25.6836 55.2246 -25.6836 C 49.9512 -25.6836 45.5078 -30.127 45.5078 -35.4004 C 45.5078 -40.6738 49.9512 -45.1172 55.2246 -45.1172 Z M 97.3145 -29.1016 C 100.732 -29.1016 103.662 -31.9824 103.662 -35.4004 C 103.662 -38.8184 100.732 -41.6992 97.3145 -41.6992 L 90.7227 -41.6992 C 87.3047 -41.6992 84.4238 -38.8184 84.4238 -35.4004 C 84.4238 -31.9824 87.3047 -29.1016 90.7227 -29.1016 Z M 13.1348 -41.6992 C 9.7168 -41.6992 6.83594 -38.8184 6.83594 -35.4004 C 6.83594 -31.9824 9.7168 -29.1016 13.1348 -29.1016 L 19.7266 -29.1016 C 23.1445 -29.1016 26.0742 -31.9824 26.0742 -35.4004 C 26.0742 -38.8184 23.1445 -41.6992 19.7266 -41.6992 Z M 84.668 -15.0391 C 82.3242 -17.3828 78.1738 -17.334 75.7324 -14.8926 C 73.3887 -12.5488 73.4375 -8.44727 75.8789 -6.00586 L 80.5664 -1.36719 C 82.9102 0.976562 87.0605 0.927734 89.502 -1.51367 C 91.8457 -3.85742 91.7969 -8.00781 89.3555 -10.4004 Z M 21.0938 -10.4004 C 18.6523 -8.00781 18.6035 -3.85742 20.9473 -1.51367 C 23.3887 0.927734 27.5391 0.976562 29.8828 -1.36719 L 34.5703 -6.00586 C 37.0117 -8.44727 37.0605 -12.5488 34.7168 -14.8926 C 32.2754 -17.334 28.125 -17.3828 25.7812 -15.0391 Z M 61.5234 -0.0488281 C 61.5234 -3.4668 58.6426 -6.34766 55.2246 -6.34766 C 51.8066 -6.34766 48.9258 -3.4668 48.9258 -0.0488281 L 48.9258 6.54297 C 48.9258 9.96094 51.8066 12.8906 55.2246 12.8906 C 58.6426 12.8906 61.5234 9.96094 61.5234 6.54297 Z"/>
  </g>
  <g id="Heavy-S" transform="matrix(1 0 0 1 2583.05 696)">
   <path d="M 59.3262 -76.416 C 59.3262 -79.4922 56.7383 -82.1289 53.6133 -82.1289 C 50.5371 -82.1289 47.9004 -79.4922 47.9004 -76.416 L 47.9004 -69.5312 C 47.9004 -66.4062 50.5371 -63.8184 53.6133 -63.8184 C 56.7383 -63.8184 59.3262 -66.4062 59.3262 -69.5312 Z M 73.6816 -63.3789 C 71.5332 -61.2305 71.582 -57.5195 73.7793 -55.2734 C 75.9277 -53.1738 79.6387 -53.1738 81.8359 -55.4199 L 86.6699 -60.3027 C 88.8184 -62.4512 88.7695 -66.2109 86.5723 -68.4082 C 84.4238 -70.5566 80.7129 -70.459 78.5156 -68.3105 Z M 25.3906 -55.4199 C 27.5879 -53.1738 31.2988 -53.1738 33.4473 -55.2734 C 35.6445 -57.4707 35.6934 -61.2793 33.5938 -63.3789 L 28.7109 -68.3105 C 26.5625 -70.459 22.8027 -70.5566 20.6543 -68.4082 C 18.457 -66.2109 18.4082 -62.4512 20.5566 -60.3027 Z M 53.6133 -57.7148 C 41.4062 -57.7148 31.2988 -47.6562 31.2988 -35.4004 C 31.2988 -23.1445 41.4062 -13.0859 53.6133 -13.0859 C 65.8691 -13.0859 75.9277 -23.1445 75.9277 -35.4004 C 75.9277 -47.6562 65.8691 -57.7148 53.6133 -57.7148 Z M 53.6133 -45.9473 C 59.375 -45.9473 64.1602 -41.1621 64.1602 -35.4004 C 64.1602 -29.6387 59.375 -24.8535 53.6133 -24.8535 C 47.9004 -24.8535 43.0664 -29.6387 43.0664 -35.4004 C 43.0664 -41.1621 47.9004 -45.9473 53.6133 -45.9473 Z M 94.6777 -29.6875 C 97.8027 -29.6875 100.439 -32.3242 100.439 -35.4004 C 100.439 -38.4766 97.8027 -41.1133 94.6777 -41.1133 L 87.8418 -41.1133 C 84.7168 -41.1133 82.1289 -38.4766 82.1289 -35.4004 C 82.1289 -32.3242 84.7168 -29.6875 87.8418 -29.6875 Z M 12.5488 -41.1133 C 9.42383 -41.1133 6.83594 -38.4766 6.83594 -35.4004 C 6.83594 -32.3242 9.42383 -29.6875 12.5488 -29.6875 L 19.4336 -29.6875 C 22.5098 -29.6875 25.1465 -32.3242 25.1465 -35.4004 C 25.1465 -38.4766 22.5098 -41.1133 19.4336 -41.1133 Z M 81.7383 -15.4785 C 79.6387 -17.5781 75.8789 -17.5781 73.6816 -15.332 C 71.5332 -13.2324 71.582 -9.52148 73.7793 -7.27539 L 78.6621 -2.44141 C 80.8105 -0.292969 84.5703 -0.341797 86.7676 -2.53906 C 88.916 -4.6875 88.8672 -8.44727 86.6699 -10.5957 Z M 20.6055 -10.5957 C 18.3594 -8.44727 18.3594 -4.6875 20.459 -2.53906 C 22.6562 -0.341797 26.416 -0.292969 28.5645 -2.44141 L 33.4473 -7.27539 C 35.6445 -9.52148 35.6934 -13.2324 33.5938 -15.332 C 31.3477 -17.5781 27.6367 -17.5781 25.4883 -15.4785 Z M 59.3262 -1.26953 C 59.3262 -4.39453 56.7383 -6.98242 53.6133 -6.98242 C 50.5371 -6.98242 47.9004 -4.39453 47.9004 -1.26953 L 47.9004 5.61523 C 47.9004 8.69141 50.5371 11.3281 53.6133 11.3281 C 56.7383 11.3281 59.3262 8.69141 59.3262 5.61523 Z"/>
  </g>
  <g id="Bold-S" transform="matrix(1 0 0 1 2288.15 696)">
   <path d="M 56.8848 -75.3418 C 56.8848 -78.0762 54.5898 -80.4199 51.8066 -80.4199 C 49.0723 -80.4199 46.7773 -78.0762 46.7773 -75.3418 L 46.7773 -68.1152 C 46.7773 -65.3809 49.0723 -63.0859 51.8066 -63.0859 C 54.5898 -63.0859 56.8848 -65.3809 56.8848 -68.1152 Z M 71.3379 -61.9629 C 69.4336 -60.0586 69.4824 -56.7871 71.4355 -54.834 C 73.3398 -52.9297 76.6113 -52.9297 78.5645 -54.8828 L 83.6426 -60.0098 C 85.5469 -61.9141 85.5469 -65.2344 83.5938 -67.1875 C 81.6895 -69.0918 78.3691 -69.043 76.4648 -67.1387 Z M 25.0977 -54.8828 C 27.002 -52.9297 30.3223 -52.9297 32.2266 -54.834 C 34.1797 -56.7383 34.1797 -60.1074 32.3242 -61.9629 L 27.1973 -67.1387 C 25.293 -68.9941 21.9727 -69.0918 20.0684 -67.1875 C 18.1152 -65.2344 18.1152 -61.9141 19.9707 -60.0586 Z M 51.8066 -56.8848 C 40.0879 -56.8848 30.3711 -47.168 30.3711 -35.4004 C 30.3711 -23.6328 40.0879 -13.916 51.8066 -13.916 C 63.5742 -13.916 73.291 -23.6328 73.291 -35.4004 C 73.291 -47.168 63.5742 -56.8848 51.8066 -56.8848 Z M 51.8066 -46.875 C 58.1055 -46.875 63.3301 -41.6504 63.3301 -35.4004 C 63.3301 -29.1504 58.1055 -23.9258 51.8066 -23.9258 C 45.5566 -23.9258 40.332 -29.1504 40.332 -35.4004 C 40.332 -41.6504 45.5566 -46.875 51.8066 -46.875 Z M 91.748 -30.3711 C 94.4824 -30.3711 96.8262 -32.666 96.8262 -35.4004 C 96.8262 -38.1348 94.4824 -40.4297 91.748 -40.4297 L 84.5703 -40.4297 C 81.8359 -40.4297 79.541 -38.1348 79.541 -35.4004 C 79.541 -32.666 81.8359 -30.3711 84.5703 -30.3711 Z M 11.8652 -40.4297 C 9.13086 -40.4297 6.83594 -38.1348 6.83594 -35.4004 C 6.83594 -32.666 9.13086 -30.3711 11.8652 -30.3711 L 19.0918 -30.3711 C 21.8262 -30.3711 24.1699 -32.666 24.1699 -35.4004 C 24.1699 -38.1348 21.8262 -40.4297 19.0918 -40.4297 Z M 78.4668 -15.918 C 76.6113 -17.8223 73.291 -17.8223 71.3379 -15.8691 C 69.4336 -13.9648 69.4824 -10.6934 71.4355 -8.74023 L 76.5625 -3.61328 C 78.4668 -1.70898 81.7383 -1.75781 83.6914 -3.71094 C 85.5957 -5.61523 85.5957 -8.88672 83.6426 -10.8398 Z M 20.0195 -10.8398 C 18.0664 -8.93555 18.0176 -5.61523 19.9219 -3.71094 C 21.875 -1.80664 25.1953 -1.75781 27.0996 -3.66211 L 32.2266 -8.74023 C 34.1797 -10.6934 34.1797 -13.9648 32.3242 -15.8691 C 30.3711 -17.8223 27.0508 -17.8223 25.1465 -15.918 Z M 56.8848 -2.68555 C 56.8848 -5.41992 54.5898 -7.71484 51.8066 -7.71484 C 49.0723 -7.71484 46.7773 -5.41992 46.7773 -2.68555 L 46.7773 4.54102 C 46.7773 7.27539 49.0723 9.61914 51.8066 9.61914 C 54.5898 9.61914 56.8848 7.27539 56.8848 4.54102 Z"/>
  </g>
  <g id="Semibold-S" transform="matrix(1 0 0 1 1992.68 696)">
   <path d="M 55.1758 -74.6094 C 55.1758 -77.0996 53.0762 -79.1992 50.5859 -79.1992 C 48.0957 -79.1992 45.9961 -77.0996 45.9961 -74.6094 L 45.9961 -67.1875 C 45.9961 -64.6484 48.0957 -62.5488 50.5859 -62.5488 C 53.0762 -62.5488 55.1758 -64.6484 55.1758 -67.1875 Z M 69.7266 -60.9863 C 68.0176 -59.2285 68.0176 -56.25 69.7754 -54.4922 C 71.5332 -52.7344 74.5117 -52.7344 76.3184 -54.541 L 81.5918 -59.8145 C 83.3008 -61.5723 83.3008 -64.5996 81.543 -66.3574 C 79.7852 -68.1152 76.8066 -68.0664 75.0488 -66.3086 Z M 24.8535 -54.541 C 26.6113 -52.7832 29.5898 -52.7344 31.3477 -54.4922 C 33.1055 -56.25 33.1543 -59.2773 31.4453 -60.9863 L 26.1719 -66.3086 C 24.4629 -68.0176 21.4355 -68.1152 19.6777 -66.3574 C 17.9199 -64.5996 17.9199 -61.5723 19.6289 -59.8633 Z M 50.5859 -56.3477 C 39.1602 -56.3477 29.6875 -46.875 29.6875 -35.4004 C 29.6875 -23.9258 39.1602 -14.4531 50.5859 -14.4531 C 62.0117 -14.4531 71.4844 -23.9258 71.4844 -35.4004 C 71.4844 -46.875 62.0117 -56.3477 50.5859 -56.3477 Z M 50.5859 -47.5586 C 57.2266 -47.5586 62.7441 -42.041 62.7441 -35.4004 C 62.7441 -28.7598 57.2266 -23.2422 50.5859 -23.2422 C 43.9453 -23.2422 38.4277 -28.7598 38.4277 -35.4004 C 38.4277 -42.041 43.9453 -47.5586 50.5859 -47.5586 Z M 89.7461 -30.8105 C 92.2363 -30.8105 94.3359 -32.9102 94.3359 -35.4004 C 94.3359 -37.8906 92.2363 -39.9902 89.7461 -39.9902 L 82.3242 -39.9902 C 79.834 -39.9902 77.7344 -37.8906 77.7344 -35.4004 C 77.7344 -32.9102 79.834 -30.8105 82.3242 -30.8105 Z M 11.4258 -39.9902 C 8.93555 -39.9902 6.83594 -37.8906 6.83594 -35.4004 C 6.83594 -32.9102 8.93555 -30.8105 11.4258 -30.8105 L 18.8477 -30.8105 C 21.3379 -30.8105 23.4375 -32.9102 23.4375 -35.4004 C 23.4375 -37.8906 21.3379 -39.9902 18.8477 -39.9902 Z M 76.2207 -16.2598 C 74.5117 -18.0176 71.5332 -17.9688 69.7266 -16.2109 C 68.0176 -14.4531 68.0176 -11.5234 69.7754 -9.7168 L 75.0977 -4.44336 C 76.8555 -2.68555 79.834 -2.73438 81.5918 -4.49219 C 83.3496 -6.25 83.3496 -9.22852 81.543 -10.9863 Z M 19.6289 -11.0352 C 17.8711 -9.27734 17.8223 -6.29883 19.5312 -4.54102 C 21.2891 -2.7832 24.3164 -2.73438 26.0742 -4.44336 L 31.3477 -9.7168 C 33.1055 -11.5234 33.1543 -14.4531 31.4453 -16.2109 C 29.6387 -17.9688 26.6602 -18.0176 24.9023 -16.2598 Z M 55.1758 -3.61328 C 55.1758 -6.15234 53.0762 -8.25195 50.5859 -8.25195 C 48.0957 -8.25195 45.9961 -6.15234 45.9961 -3.61328 L 45.9961 3.80859 C 45.9961 6.29883 48.0957 8.39844 50.5859 8.39844 C 53.0762 8.39844 55.1758 6.29883 55.1758 3.80859 Z"/>
  </g>
  <g id="Medium-S" transform="matrix(1 0 0 1 1696.9 696)">
   <path d="M 53.9062 -74.0723 C 53.9062 -76.3672 51.9531 -78.3203 49.6582 -78.3203 C 47.3633 -78.3203 45.4102 -76.3672 45.4102 -74.0723 L 45.4102 -66.4551 C 45.4102 -64.1113 47.3633 -62.207 49.6582 -62.207 C 51.9531 -62.207 53.9062 -64.1113 53.9062 -66.4551 Z M 68.5547 -60.2539 C 66.8945 -58.6426 66.9434 -55.8594 68.5547 -54.248 C 70.166 -52.6367 72.9492 -52.5879 74.6094 -54.2969 L 79.9805 -59.668 C 81.5918 -61.2793 81.5918 -64.0625 79.9805 -65.7227 C 78.3203 -67.334 75.5859 -67.334 73.9746 -65.6738 Z M 24.707 -54.2969 C 26.3184 -52.6367 29.1016 -52.6367 30.7129 -54.248 C 32.3242 -55.8594 32.3242 -58.6914 30.7617 -60.2539 L 25.3906 -65.6738 C 23.7793 -67.2852 20.9961 -67.334 19.3848 -65.7227 C 17.7246 -64.0625 17.7246 -61.2793 19.3359 -59.7168 Z M 49.6582 -55.9082 C 38.4766 -55.9082 29.1992 -46.6309 29.1992 -35.4004 C 29.1992 -24.1699 38.4766 -14.8926 49.6582 -14.8926 C 60.8398 -14.8926 70.1172 -24.1699 70.1172 -35.4004 C 70.1172 -46.6309 60.8398 -55.9082 49.6582 -55.9082 Z M 49.6582 -48.0469 C 56.543 -48.0469 62.2559 -42.2852 62.2559 -35.4004 C 62.2559 -28.5156 56.543 -22.7539 49.6582 -22.7539 C 42.7734 -22.7539 37.0117 -28.5156 37.0117 -35.4004 C 37.0117 -42.2852 42.7734 -48.0469 49.6582 -48.0469 Z M 88.2324 -31.1523 C 90.5273 -31.1523 92.4805 -33.1055 92.4805 -35.4004 C 92.4805 -37.6953 90.5273 -39.6484 88.2324 -39.6484 L 80.6641 -39.6484 C 78.3203 -39.6484 76.3672 -37.6953 76.3672 -35.4004 C 76.3672 -33.1055 78.3203 -31.1523 80.6641 -31.1523 Z M 11.084 -39.6484 C 8.78906 -39.6484 6.83594 -37.6953 6.83594 -35.4004 C 6.83594 -33.1055 8.78906 -31.1523 11.084 -31.1523 L 18.6523 -31.1523 C 20.9473 -31.1523 22.9004 -33.1055 22.9004 -35.4004 C 22.9004 -37.6953 20.9473 -39.6484 18.6523 -39.6484 Z M 74.5117 -16.5039 C 72.9004 -18.1152 70.166 -18.1152 68.5547 -16.4551 C 66.8945 -14.8438 66.9434 -12.1094 68.5547 -10.498 L 74.0234 -5.0293 C 75.6348 -3.41797 78.3691 -3.4668 79.9805 -5.12695 C 81.6406 -6.73828 81.5918 -9.47266 79.9805 -11.1328 Z M 19.3359 -11.1328 C 17.6758 -9.52148 17.6758 -6.78711 19.2383 -5.17578 C 20.8984 -3.51562 23.6816 -3.4668 25.293 -5.07812 L 30.7129 -10.498 C 32.3242 -12.1094 32.3242 -14.8438 30.7617 -16.4551 C 29.1504 -18.1152 26.3672 -18.1152 24.707 -16.5039 Z M 53.9062 -4.3457 C 53.9062 -6.68945 51.9531 -8.59375 49.6582 -8.59375 C 47.3633 -8.59375 45.4102 -6.68945 45.4102 -4.3457 L 45.4102 3.27148 C 45.4102 5.56641 47.3633 7.51953 49.6582 7.51953 C 51.9531 7.51953 53.9062 5.56641 53.9062 3.27148 Z"/>
  </g>
  <g id="Regular-S" transform="matrix(1 0 0 1 1401.41 696)">
   <path d="M 52.2461 -73.3398 C 52.2461 -75.3906 50.4883 -77.1484 48.4375 -77.1484 C 46.3379 -77.1484 44.6289 -75.3906 44.6289 -73.3398 L 44.6289 -65.4785 C 44.6289 -63.4277 46.3379 -61.6699 48.4375 -61.6699 C 50.4883 -61.6699 52.2461 -63.4277 52.2461 -65.4785 Z M 66.9434 -59.2773 C 65.4785 -57.8125 65.4785 -55.3711 66.9434 -53.9062 C 68.4082 -52.4902 70.8496 -52.4414 72.3633 -53.9062 L 77.9297 -59.4727 C 79.3945 -60.9375 79.3945 -63.4277 77.9297 -64.8926 C 76.4648 -66.3574 74.0234 -66.3574 72.5586 -64.8926 Z M 24.5117 -53.9062 C 25.9277 -52.4902 28.418 -52.4902 29.834 -53.9062 C 31.2988 -55.3223 31.2988 -57.8613 29.8828 -59.2773 L 24.3164 -64.8926 C 22.9492 -66.3086 20.459 -66.3574 18.9941 -64.8926 C 17.5293 -63.4277 17.5293 -60.9375 18.9453 -59.5215 Z M 48.4375 -55.3223 C 37.5488 -55.3223 28.5156 -46.3379 28.5156 -35.4004 C 28.5156 -24.4629 37.5488 -15.4785 48.4375 -15.4785 C 59.2773 -15.4785 68.3105 -24.4629 68.3105 -35.4004 C 68.3105 -46.3379 59.2773 -55.3223 48.4375 -55.3223 Z M 48.4375 -48.6816 C 55.6641 -48.6816 61.6699 -42.627 61.6699 -35.4004 C 61.6699 -28.1738 55.6641 -22.1191 48.4375 -22.1191 C 41.1621 -22.1191 35.1562 -28.1738 35.1562 -35.4004 C 35.1562 -42.627 41.1621 -48.6816 48.4375 -48.6816 Z M 86.2305 -31.5918 C 88.2812 -31.5918 90.0391 -33.3496 90.0391 -35.4004 C 90.0391 -37.4512 88.2812 -39.209 86.2305 -39.209 L 78.418 -39.209 C 76.3672 -39.209 74.6094 -37.4512 74.6094 -35.4004 C 74.6094 -33.3496 76.3672 -31.5918 78.418 -31.5918 Z M 10.6445 -39.209 C 8.59375 -39.209 6.83594 -37.4512 6.83594 -35.4004 C 6.83594 -33.3496 8.59375 -31.5918 10.6445 -31.5918 L 18.4082 -31.5918 C 20.5078 -31.5918 22.2168 -33.3496 22.2168 -35.4004 C 22.2168 -37.4512 20.5078 -39.209 18.4082 -39.209 Z M 72.3145 -16.8457 C 70.8496 -18.2617 68.4082 -18.2617 66.9434 -16.8457 C 65.4785 -15.3809 65.4785 -12.9395 66.9434 -11.4746 L 72.5586 -5.85938 C 74.0234 -4.39453 76.4648 -4.44336 77.9297 -5.9082 C 79.3945 -7.37305 79.3945 -9.81445 77.9297 -11.2793 Z M 18.9453 -11.3281 C 17.4805 -9.86328 17.4805 -7.42188 18.8965 -5.95703 C 20.3613 -4.49219 22.8516 -4.44336 24.2676 -5.9082 L 29.834 -11.4746 C 31.2988 -12.9395 31.2988 -15.3809 29.8828 -16.8457 C 28.4668 -18.2617 25.9766 -18.2617 24.5117 -16.8457 Z M 52.2461 -5.32227 C 52.2461 -7.37305 50.4883 -9.13086 48.4375 -9.13086 C 46.3379 -9.13086 44.6289 -7.37305 44.6289 -5.32227 L 44.6289 2.53906 C 44.6289 4.58984 46.3379 6.34766 48.4375 6.34766 C 50.4883 6.34766 52.2461 4.58984 52.2461 2.53906 Z"/>
  </g>
  <g id="Light-S" transform="matrix(1 0 0 1 1105.04 696)">
   <path d="M 51.0254 -73.7793 C 51.0254 -75.3906 49.707 -76.7578 48.0957 -76.7578 C 46.4844 -76.7578 45.1172 -75.3906 45.1172 -73.7793 L 45.1172 -65.5762 C 45.1172 -63.9648 46.4844 -62.6465 48.0957 -62.6465 C 49.707 -62.6465 51.0254 -63.9648 51.0254 -65.5762 Z M 67.2852 -58.7402 C 66.1621 -57.6172 66.1621 -55.7129 67.2852 -54.5898 C 68.4082 -53.4668 70.3125 -53.418 71.4844 -54.5898 L 77.2949 -60.4492 C 78.418 -61.5723 78.418 -63.4766 77.2949 -64.5996 C 76.1719 -65.7715 74.2676 -65.7715 73.1445 -64.5996 Z M 24.707 -54.5898 C 25.7812 -53.4668 27.6855 -53.4668 28.8574 -54.5898 C 29.9805 -55.6641 29.9805 -57.666 28.8574 -58.7402 L 23.0469 -64.5996 C 21.9727 -65.7227 20.0195 -65.7715 18.8965 -64.5996 C 17.7734 -63.4766 17.7734 -61.5723 18.8965 -60.4492 Z M 48.0469 -54.5898 C 37.5977 -54.5898 28.9062 -45.8984 28.9062 -35.4004 C 28.9062 -24.9023 37.5977 -16.2109 48.0469 -16.2109 C 58.5449 -16.2109 67.2363 -24.9023 67.2363 -35.4004 C 67.2363 -45.8984 58.5449 -54.5898 48.0469 -54.5898 Z M 48.0469 -49.4141 C 55.7129 -49.4141 62.0605 -43.0664 62.0605 -35.4004 C 62.0605 -27.7344 55.7129 -21.3867 48.0469 -21.3867 C 40.3809 -21.3867 34.0332 -27.7344 34.0332 -35.4004 C 34.0332 -43.0664 40.3809 -49.4141 48.0469 -49.4141 Z M 86.377 -32.4219 C 87.9883 -32.4219 89.3555 -33.7891 89.3555 -35.4004 C 89.3555 -37.0117 87.9883 -38.3789 86.377 -38.3789 L 78.2227 -38.3789 C 76.6113 -38.3789 75.2441 -37.0117 75.2441 -35.4004 C 75.2441 -33.7891 76.6113 -32.4219 78.2227 -32.4219 Z M 9.81445 -38.3789 C 8.20312 -38.3789 6.83594 -37.0117 6.83594 -35.4004 C 6.83594 -33.7891 8.20312 -32.4219 9.81445 -32.4219 L 17.9688 -32.4219 C 19.5801 -32.4219 20.9473 -33.7891 20.9473 -35.4004 C 20.9473 -37.0117 19.5801 -38.3789 17.9688 -38.3789 Z M 71.4355 -16.1621 C 70.3125 -17.2852 68.4082 -17.2852 67.2852 -16.1621 C 66.1621 -15.0391 66.1621 -13.1348 67.2852 -12.0117 L 73.1445 -6.15234 C 74.2676 -5.0293 76.1719 -5.0293 77.2949 -6.20117 C 78.418 -7.32422 78.418 -9.22852 77.2949 -10.3516 Z M 18.8477 -10.3516 C 17.7246 -9.27734 17.7246 -7.37305 18.8477 -6.20117 C 19.9219 -5.07812 21.875 -5.0293 22.998 -6.20117 L 28.8574 -12.0117 C 29.9805 -13.1348 29.9805 -15.0391 28.8574 -16.1621 C 27.7344 -17.2852 25.8301 -17.2852 24.707 -16.1621 Z M 51.0254 -5.22461 C 51.0254 -6.83594 49.707 -8.1543 48.0957 -8.1543 C 46.4844 -8.1543 45.1172 -6.83594 45.1172 -5.22461 L 45.1172 2.97852 C 45.1172 4.58984 46.4844 5.95703 48.0957 5.95703 C 49.707 5.95703 51.0254 4.58984 51.0254 2.97852 Z"/>
  </g>
  <g id="Thin-S" transform="matrix(1 0 0 1 808.766 696)">
   <path d="M 49.4629 -74.4141 C 49.4629 -75.3906 48.6328 -76.2695 47.6562 -76.2695 C 46.6797 -76.2695 45.8008 -75.3906 45.8008 -74.4141 L 45.8008 -65.6738 C 45.8008 -64.6973 46.6797 -63.8672 47.6562 -63.8672 C 48.6328 -63.8672 49.4629 -64.6973 49.4629 -65.6738 Z M 67.7246 -58.0566 C 67.041 -57.373 67.041 -56.2012 67.7246 -55.4688 C 68.457 -54.7852 69.5801 -54.7852 70.3125 -55.4688 L 76.5137 -61.6699 C 77.1973 -62.3535 77.1973 -63.5254 76.5137 -64.2578 C 75.7812 -64.9414 74.6094 -64.9414 73.9258 -64.2578 Z M 24.9512 -55.4688 C 25.6348 -54.7852 26.8066 -54.7852 27.4902 -55.4688 C 28.2227 -56.1523 28.2227 -57.373 27.5391 -58.0566 L 21.3867 -64.2578 C 20.7031 -64.9414 19.5312 -64.9414 18.7988 -64.2578 C 18.1152 -63.5742 18.1152 -62.3535 18.7988 -61.6699 Z M 47.5586 -53.6133 C 37.5977 -53.6133 29.3945 -45.3613 29.3945 -35.4004 C 29.3945 -25.4395 37.5977 -17.1875 47.5586 -17.1875 C 57.5195 -17.1875 65.7715 -25.4395 65.7715 -35.4004 C 65.7715 -45.3613 57.5195 -53.6133 47.5586 -53.6133 Z M 47.5586 -50.3906 C 55.7617 -50.3906 62.5488 -43.6035 62.5488 -35.4004 C 62.5488 -27.1973 55.7617 -20.4102 47.5586 -20.4102 C 39.3555 -20.4102 32.5684 -27.1973 32.5684 -35.4004 C 32.5684 -43.6035 39.3555 -50.3906 47.5586 -50.3906 Z M 86.6211 -33.5449 C 87.5977 -33.5449 88.4766 -34.4238 88.4766 -35.4004 C 88.4766 -36.377 87.5977 -37.2559 86.6211 -37.2559 L 77.9297 -37.2559 C 76.9531 -37.2559 76.0742 -36.377 76.0742 -35.4004 C 76.0742 -34.4238 76.9531 -33.5449 77.9297 -33.5449 Z M 8.69141 -37.2559 C 7.71484 -37.2559 6.83594 -36.377 6.83594 -35.4004 C 6.83594 -34.4238 7.71484 -33.5449 8.69141 -33.5449 L 17.3828 -33.5449 C 18.3594 -33.5449 19.1895 -34.4238 19.1895 -35.4004 C 19.1895 -36.377 18.3594 -37.2559 17.3828 -37.2559 Z M 70.3125 -15.2832 C 69.5801 -16.0156 68.457 -16.0156 67.7246 -15.2832 C 67.041 -14.5996 67.041 -13.4277 67.7246 -12.7441 L 73.9258 -6.54297 C 74.6094 -5.81055 75.7812 -5.85938 76.5137 -6.54297 C 77.1973 -7.27539 77.1973 -8.39844 76.5137 -9.13086 Z M 18.75 -9.13086 C 18.0664 -8.44727 18.0664 -7.27539 18.75 -6.54297 C 19.4336 -5.85938 20.6055 -5.85938 21.3379 -6.54297 L 27.4902 -12.6953 C 28.2227 -13.3789 28.2227 -14.5508 27.5391 -15.2832 C 26.8555 -15.9668 25.6348 -15.9668 24.9512 -15.2832 Z M 49.4629 -5.12695 C 49.4629 -6.10352 48.6328 -6.93359 47.6562 -6.93359 C 46.6797 -6.93359 45.8008 -6.10352 45.8008 -5.12695 L 45.8008 3.61328 C 45.8008 4.58984 46.6797 5.46875 47.6562 5.46875 C 48.6328 5.46875 49.4629 4.58984 49.4629 3.61328 Z"/>
  </g>
  <g id="Ultralight-S" transform="matrix(1 0 0 1 512.299 696)">
   <path d="M 48.6816 -74.7559 C 48.6816 -75.3906 48.0957 -75.9766 47.4121 -75.9766 C 46.7773 -75.9766 46.1426 -75.3906 46.1426 -74.7559 L 46.1426 -65.7715 C 46.1426 -65.0879 46.7773 -64.502 47.4121 -64.502 C 48.0957 -64.502 48.6816 -65.0879 48.6816 -65.7715 Z M 67.9688 -57.7148 C 67.4805 -57.2266 67.4805 -56.4453 67.9688 -55.957 C 68.457 -55.4688 69.2383 -55.4688 69.7266 -55.957 L 76.0742 -62.3047 C 76.5625 -62.793 76.5625 -63.5742 76.0742 -64.0625 C 75.5859 -64.5508 74.8047 -64.5508 74.3164 -64.0625 Z M 25.0488 -55.957 C 25.4883 -55.4688 26.3184 -55.4688 26.8066 -55.957 C 27.2949 -56.3965 27.2949 -57.2266 26.8066 -57.7148 L 20.5078 -64.0625 C 20.0684 -64.5508 19.2383 -64.5508 18.75 -64.0625 C 18.2617 -63.623 18.2617 -62.793 18.75 -62.3047 Z M 47.3145 -53.0762 C 37.6465 -53.0762 29.6387 -45.0684 29.6387 -35.4004 C 29.6387 -25.7324 37.6465 -17.7246 47.3145 -17.7246 C 56.9824 -17.7246 65.0391 -25.7324 65.0391 -35.4004 C 65.0391 -45.0684 56.9824 -53.0762 47.3145 -53.0762 Z M 47.3145 -50.9277 C 55.8105 -50.9277 62.8418 -43.8965 62.8418 -35.4004 C 62.8418 -26.9043 55.8105 -19.873 47.3145 -19.873 C 38.8184 -19.873 31.8359 -26.9043 31.8359 -35.4004 C 31.8359 -43.8965 38.8184 -50.9277 47.3145 -50.9277 Z M 86.7188 -34.1309 C 87.4023 -34.1309 87.9883 -34.7656 87.9883 -35.4004 C 87.9883 -36.0352 87.4023 -36.6699 86.7188 -36.6699 L 77.7832 -36.6699 C 77.0996 -36.6699 76.5137 -36.0352 76.5137 -35.4004 C 76.5137 -34.7656 77.0996 -34.1309 77.7832 -34.1309 Z M 8.10547 -36.6699 C 7.42188 -36.6699 6.83594 -36.0352 6.83594 -35.4004 C 6.83594 -34.7656 7.42188 -34.1309 8.10547 -34.1309 L 17.041 -34.1309 C 17.7246 -34.1309 18.3105 -34.7656 18.3105 -35.4004 C 18.3105 -36.0352 17.7246 -36.6699 17.041 -36.6699 Z M 69.7266 -14.8438 C 69.2383 -15.332 68.457 -15.332 67.9688 -14.8438 C 67.4805 -14.3555 67.4805 -13.5742 67.9688 -13.0859 L 74.3164 -6.73828 C 74.8047 -6.25 75.5859 -6.25 76.0742 -6.73828 C 76.5625 -7.22656 76.5625 -8.00781 76.0742 -8.49609 Z M 18.7012 -8.49609 C 18.2129 -8.05664 18.2129 -7.22656 18.7012 -6.73828 C 19.1406 -6.25 19.9707 -6.25 20.459 -6.73828 L 26.8066 -13.0371 C 27.2949 -13.4766 27.2949 -14.3066 26.8066 -14.7949 C 26.3672 -15.2832 25.5371 -15.2832 25.0488 -14.7949 Z M 48.6816 -5.0293 C 48.6816 -5.71289 48.0957 -6.29883 47.4121 -6.29883 C 46.7773 -6.29883 46.1426 -5.71289 46.1426 -5.0293 L 46.1426 3.95508 C 46.1426 4.58984 46.7773 5.17578 47.4121 5.17578 C 48.0957 5.17578 48.6816 4.58984 48.6816 3.95508 Z"/>
  </g>
 </g>
</svg>
